<svg xmlns="http://www.w3.org/2000/svg" viewBox="0 0 30 30">
    <rect class="frame" width="30" height="30"/>
    <line class="eye" x1="19.1" y1="11.2" x2="19.1" y2="11.2"/>
    <path class="duck" d="M24.1,9.7a3.07,3.07,0,0,1-2.9-1.5,4.3,4.3,0,0,0-4-2.2,4.52,4.52,0,0,0-4.7,4.5A4.21,4.21,0,0,0,13.7,14a9.22,9.22,0,0,0-3.8.9,3.64,3.64,0,0,1-3.4.2.91.91,0,0,0-1.3.9,10.85,10.85,0,0,0,1.9,5.1,6.12,6.12,0,0,0,4.7,2.7h6.4a5.14,5.14,0,0,0,3.6-1.7,4.8,4.8,0,0,0,1.1-3.2c0-2.2-1.4-3.7-2.5-5,0,0,4,0,4.3-3.9C24.8,9.9,24.4,9.6,24.1,9.7Z"/>
</svg>