<svg xmlns="http://www.w3.org/2000/svg" xmlns:xlink="http://www.w3.org/1999/xlink" version="1.1" id="Capa_1" x="0px" y="0px" viewBox="0 0 304.5 52.8" style="enable-background:new 0 0 304.5 52.8;" xml:space="preserve">
<style type="text/css">
	.st0{fill:#FFFFFF;}
	.st1{fill:#00519E;}
	.st2{fill:#DD295F;}
	.st3{fill:url(#SVGID_1_);}
	.st4{fill:#F6B221;}
</style>
<title>logo-header-slogan</title>
<g id="Capa_2">
	<g id="Capa_1-2">
		<path class="st0" d="M77.9,32.3l0.6-0.5c0.5-0.4,1.1-0.6,1.7-0.7c0.7,0,1.5,0.7,2.3,2c0.4,0.6,0.7,1.3,0.8,2    c0,0.4-0.2,0.8-0.5,1.2c-0.3,0.3-0.7,0.6-1.1,0.9l-1.2,0.7c-0.8,0.4-1.6,0.7-2.4,0.9c-1.1,0.4-2.3,0.6-3.5,0.6    c-1.1,0-2.3-0.2-3.4-0.4c-1.2-0.3-2.4-0.8-3.5-1.5c-1.2-0.7-2.3-1.5-3.3-2.5c-1-1.1-1.8-2.4-2.4-3.8c-0.6-1.6-0.9-3.3-0.9-5.1    c0-1.7,0.3-3.4,0.9-5c0.5-1.4,1.3-2.6,2.3-3.7c1-1,2-1.8,3.3-2.4c2.1-1.2,4.5-1.9,6.9-1.9c2.1,0.1,4.1,0.6,5.9,1.6l0.8,0.5    c0.4,0.3,0.8,0.5,1,0.6c0.5,0.4,0.9,1,0.9,1.7c0,0.7-0.3,1.4-0.7,2c-0.9,1.3-1.8,2-2.5,2c-0.7-0.1-1.3-0.4-1.8-0.8    c-1.1-0.9-2.5-1.3-3.9-1.2c-1.6,0-3.2,0.6-4.5,1.6c-0.8,0.6-1.4,1.3-1.8,2.2c-0.9,2-0.9,4.3,0,6.4c0.4,0.9,1,1.6,1.8,2.2    c1.3,1,2.8,1.5,4.5,1.5c0.7,0,1.4-0.1,2.1-0.3C77,32.8,77.5,32.6,77.9,32.3z"/>
		<path class="st0" d="M149.4,32.3l0.6-0.5c0.5-0.4,1.1-0.6,1.7-0.7c0.7,0,1.5,0.7,2.4,2c0.4,0.6,0.7,1.3,0.8,2    c0,0.5-0.2,0.9-0.5,1.2c-0.3,0.3-0.7,0.6-1.1,0.9l-1.2,0.7c-0.8,0.4-1.6,0.7-2.4,0.9c-1.1,0.4-2.3,0.6-3.5,0.6    c-1.1,0-2.3-0.2-3.4-0.4c-1.2-0.3-2.4-0.8-3.5-1.5c-1.2-0.7-2.3-1.5-3.3-2.5c-1-1.1-1.8-2.4-2.4-3.8c-0.6-1.6-0.9-3.3-0.9-5.1    c0-1.7,0.3-3.4,0.9-5c0.5-1.4,1.3-2.6,2.3-3.7c1-1,2-1.8,3.3-2.4c2.1-1.2,4.5-1.9,6.9-1.9c2.1,0.1,4.1,0.6,5.9,1.6l0.8,0.5    c0.4,0.3,0.8,0.5,1,0.6c0.5,0.4,0.9,1,0.9,1.7c0,0.7-0.3,1.4-0.7,2c-0.9,1.3-1.7,1.9-2.5,1.9c-0.7-0.1-1.3-0.4-1.8-0.8    c-1.1-0.9-2.5-1.3-4-1.2c-1.6,0-3.2,0.6-4.5,1.6c-0.8,0.6-1.4,1.3-1.8,2.2c-0.9,2-0.9,4.3,0,6.4c0.4,0.9,1,1.6,1.8,2.2    c1.3,1,2.9,1.5,4.5,1.5c0.7,0,1.4-0.1,2.1-0.3C148.5,32.8,149,32.6,149.4,32.3z"/>
		<path class="st0" d="M157.2,16.4c0-0.4,0-0.8,0.1-1.2c0.1-0.3,0.2-0.6,0.3-0.9c0.3-0.6,1.2-1,2.7-0.9c1.6,0,2.6,0.4,2.9,1.3    c0.1,0.6,0.2,1.2,0.2,1.8V36c0,0.4,0,0.8-0.1,1.2c-0.1,0.3-0.2,0.6-0.3,0.9c-0.3,0.7-1.2,1-2.7,1c-1.6,0-2.6-0.4-2.9-1.3    c-0.2-0.6-0.2-1.2-0.2-1.8L157.2,16.4z"/>
		<path class="st0" d="M170.7,13.3c0.7,0,1.3,0.1,2,0.2c0.4,0.1,0.7,0.4,0.9,0.8c0.3,0.7,0.4,1.4,0.4,2.2v25.4c0,2.4-1,4.8-2.7,6.5    c-1.8,1.9-4.2,2.9-6.8,2.8c-1.4,0-2.9-0.3-4.1-1c-0.8-0.4-1.6-0.9-2.3-1.6l-0.3-0.3c-0.7-0.6-1.1-1.4-1.2-2.2    c0.1-0.9,0.6-1.6,1.2-2.2c0.5-0.7,1.3-1.1,2.2-1.3c0.8,0.1,1.6,0.5,2.1,1.2c0.6,0.7,1.5,1.1,2.5,1.2c0.8,0,1.6-0.3,2.2-0.9    c0.6-0.7,0.9-1.5,0.9-2.4V16.7c0-1.4,0.2-2.3,0.7-2.7C169.1,13.5,169.9,13.3,170.7,13.3z"/>
		<path class="st0" d="M193.7,14.3c0.2-0.4,0.6-0.6,1-0.8c0.5-0.2,1.1-0.2,1.7-0.2c0.5,0,1.1,0,1.6,0.2c0.3,0.1,0.6,0.2,0.9,0.4    c0.2,0.2,0.4,0.5,0.5,0.7c0.2,0.6,0.2,1.2,0.2,1.8v10.6c0,3.1-1,6-2.9,8.4c-1,1.2-2.2,2.2-3.6,2.9c-1.5,0.8-3.2,1.1-4.9,1.1    c-1.7,0-3.4-0.4-4.9-1.1c-1.4-0.7-2.6-1.7-3.6-3c-1.9-2.4-2.9-5.4-2.9-8.4V16.4c0-0.4,0-0.8,0.1-1.3c0.1-0.3,0.2-0.6,0.3-0.9    c0.2-0.4,0.5-0.6,0.9-0.7c1.2-0.3,2.4-0.3,3.6,0c0.4,0.1,0.7,0.4,0.9,0.7c0.3,0.7,0.5,1.5,0.4,2.2V27c0,1.4,0.4,2.8,1.1,4.1    c0.4,0.7,0.9,1.2,1.6,1.6c0.8,0.4,1.6,0.6,2.5,0.6c1.5,0.1,3-0.6,3.8-1.9c0.9-1.3,1.3-2.8,1.3-4.4V16.2    C193.2,15.6,193.4,14.9,193.7,14.3z"/>
		<path class="st0" d="M208.6,32.9h10.8c0.4,0,0.8,0,1.2,0c0.3,0.1,0.6,0.2,0.9,0.3c0.6,0.3,0.9,1.2,0.9,2.7c0,1.6-0.4,2.6-1.3,2.9    c-0.6,0.2-1.2,0.2-1.8,0.2h-13.9c-1.6,0-2.6-0.4-2.9-1.3c-0.2-0.6-0.2-1.2-0.2-1.8V16.4c-0.1-0.9,0.1-1.7,0.7-2.4    c0.7-0.5,1.6-0.8,2.5-0.6h13.8c0.4,0,0.8,0,1.2,0.1c0.3,0.1,0.6,0.2,0.9,0.3c0.6,0.3,0.9,1.2,0.9,2.7c0,1.6-0.4,2.6-1.3,2.9    c-0.6,0.2-1.2,0.2-1.8,0.2h-10.8v3.5h7c0.4,0,0.8,0,1.2,0c0.3,0.1,0.6,0.2,0.9,0.3c0.7,0.3,1,1.2,0.9,2.7c0,1.6-0.4,2.6-1.3,2.9    c-0.6,0.2-1.2,0.2-1.8,0.2h-6.9L208.6,32.9z"/>
		<path class="st0" d="M238.2,23.6h6.2c1.3,0,2,0.4,2.3,1c0.3,0.6,0.4,1.3,0.4,2v7.7c0,0.8-0.4,1.6-1,2.1c-2,2-5,3.1-8.9,3.1    c-3.5,0-6.8-1.4-9.1-4c-2.5-2.5-3.9-6-3.9-9.5c-0.1-3.5,1.3-6.9,3.9-9.3c4.6-4.6,12-5,17.1-1c0.5,0.3,0.9,0.9,0.9,1.6    c-0.1,0.7-0.3,1.4-0.8,2c-0.9,1.2-1.7,1.9-2.5,1.9c-0.8-0.1-1.5-0.5-2.1-1c-1-0.7-2.3-1-3.5-1c-1.8,0-3.5,0.7-4.7,1.9    c-1.4,1.3-2.1,3.1-2.1,4.9c0,1.9,0.7,3.8,2.1,5.2c1.2,1.3,3,2.1,4.8,2.1c1.2,0,2.4-0.2,3.5-0.6v-3.8H238c-0.5,0-1.1-0.1-1.6-0.3    c-0.3-0.2-0.5-0.5-0.6-0.8c-0.1-0.5-0.2-1-0.1-1.5c0-0.5,0-1,0.2-1.5c0.1-0.3,0.3-0.6,0.6-0.8C237,23.6,237.6,23.5,238.2,23.6z"/>
		<path class="st0" d="M262,13c3.4,0,6.6,1.3,9,3.8c2.5,2.4,3.9,5.8,3.8,9.3c0.1,3.5-1.2,6.9-3.6,9.5c-2.3,2.6-5.6,4-9,3.9    c-3.4,0.1-6.7-1.3-9.1-3.9c-2.4-2.4-3.8-5.8-3.7-9.2c0-1.9,0.3-3.7,1.1-5.5c0.6-1.6,1.6-3.1,2.8-4.3c1.2-1.1,2.5-2.1,4-2.7    C258.7,13.3,260.3,13,262,13z M255.6,26.3c-0.1,1.9,0.6,3.7,2,5.1c2.4,2.5,6.3,2.6,8.8,0.2c0.1-0.1,0.1-0.1,0.2-0.2    c1.4-1.3,2.1-3.2,2-5.1c0.1-1.9-0.6-3.8-2-5.1c-1.2-1.2-2.8-1.9-4.5-1.9c-1.7,0-3.3,0.7-4.5,2C256.2,22.5,255.5,24.4,255.6,26.3    L255.6,26.3z"/>
		<path class="st0" d="M277.5,35.5c-0.5-0.5-0.8-1.3-0.9-2c0-0.6,0.5-1.4,1.5-2.4c0.5-0.5,1.2-0.8,1.9-0.8c0.7,0,1.6,0.6,2.7,1.8    c0.4,0.5,0.9,0.8,1.4,1.1c0.5,0.3,1.1,0.5,1.7,0.5c2.2,0,3.3-0.9,3.3-2.7c0-0.6-0.4-1.1-0.9-1.4c-0.7-0.4-1.4-0.7-2.2-0.8    c-1-0.2-1.9-0.5-2.9-0.8c-1-0.3-2-0.8-2.9-1.3c-0.9-0.6-1.7-1.4-2.2-2.3c-0.6-1.2-0.9-2.5-0.9-3.9c0-2,0.8-4,2.3-5.4    c1.7-1.6,4-2.4,6.3-2.3c1.3,0,2.6,0.2,3.9,0.6c0.9,0.2,1.7,0.6,2.4,1.1l0.9,0.7c0.6,0.4,1,1,1.1,1.7c-0.1,0.7-0.4,1.4-0.8,1.9    c-0.8,1.2-1.6,1.8-2.5,1.8c-0.7-0.1-1.3-0.3-1.8-0.7c-0.1-0.1-0.3-0.2-0.4-0.4c-0.2-0.2-0.4-0.3-0.5-0.5c-0.6-0.3-1.2-0.5-1.9-0.5    c-0.7,0-1.3,0.2-1.9,0.5c-0.5,0.3-0.8,0.9-0.8,1.5c0,0.6,0.3,1.2,0.9,1.6c0.7,0.4,1.4,0.7,2.2,0.8c1,0.2,2,0.4,2.9,0.6    c1,0.3,2,0.6,2.9,1.1c1,0.5,1.7,1.2,2.2,2.2c0.6,1.2,0.9,2.5,0.9,3.9c0,1.4-0.3,2.8-0.9,4c-0.6,1.1-1.4,2-2.4,2.7    c-1.8,1.2-3.9,1.9-6.1,1.9c-1.1,0-2.1-0.1-3.1-0.4c-1.9-0.5-3.7-1.6-5-3.2L277.5,35.5z"/>
		<path class="st0" d="M130.3,14.7c-0.1-0.3-0.2-0.5-0.5-0.7c-0.3-0.2-0.6-0.3-0.9-0.4c-0.5-0.1-1.1-0.2-1.6-0.2    c-0.6,0-1.1,0.1-1.7,0.2c-0.4,0.1-0.8,0.4-1,0.8c-0.3,0.6-0.4,1.3-0.3,1.9V27c0,1.6-0.4,3.1-1.3,4.4c-0.8,1.3-2.3,2-3.8,1.9    c-0.9,0-1.7-0.2-2.5-0.6c-0.7-0.4-1.2-0.9-1.6-1.6c-0.7-1.2-1.1-2.7-1.1-4.1V16.5c0-0.7-0.1-1.5-0.4-2.2c-0.2-0.4-0.5-0.6-0.9-0.7    c-1.2-0.3-2.4-0.3-3.6,0c-0.4,0.1-0.7,0.4-0.9,0.7c-0.2,0.3-0.3,0.6-0.3,0.9c0,0.4-0.1,0.8-0.1,1.3V27c0,2.1,0.5,4.1,1.4,6l0,0    c-3.3,3.5-5.2-1.5-5.2-1.5l-1-2.4c0.7-0.7,1.3-1.5,1.7-2.4c0.6-1.3,0.9-2.7,0.9-4.1c0-1.4-0.3-2.9-0.9-4.1c-0.5-1.2-1.3-2.2-2.3-3    c-1.7-1.4-3.8-2.2-6-2.3h-7.6c-1.5,0-2.4,0.3-2.7,0.9c-0.2,0.3-0.3,0.6-0.3,0.9c0,0.4-0.1,0.8-0.1,1.2v19.5c0,0.6,0,1.2,0.2,1.8    c0.3,0.9,1.2,1.3,2.9,1.3c1.5,0,2.4-0.3,2.7-1c0.2-0.3,0.3-0.6,0.3-0.9c0-0.4,0.1-0.8,0.1-1.2v-4h4.4c0.4,0,0.8,0,1.2-0.1l0,0    c0,0,0.5,1.2,1.5,3.6s3.5,4.9,8.2,4.9c2.3-0.1,4.6-0.9,6.4-2.3l0,0c0.2,0.2,0.5,0.3,0.8,0.4c1.5,0.8,3.2,1.1,4.9,1.1    c1.7,0,3.4-0.4,4.9-1.1c1.4-0.7,2.6-1.7,3.6-2.9c1.9-2.4,2.9-5.4,2.9-8.4V16.5C130.6,15.9,130.5,15.3,130.3,14.7z M91.9,25.8v-6.2    h4.4c0.8,0,1.5,0.3,2.1,0.8c0.7,0.6,1.1,1.4,1,2.3c0.1,0.9-0.3,1.8-1,2.3c-0.6,0.5-1.3,0.8-2.1,0.8L91.9,25.8z"/>
		<path class="st0" d="M26.1,0.8C11.9,0.8,0.5,12.3,0.5,26.4S11.9,52,26.1,52s25.6-11.5,25.6-25.6l0,0C51.6,12.3,40.2,0.8,26.1,0.8z    "/>
		<path class="st1" d="M26.1,0.3C11.6,0.3,0,12,0,26.4s11.7,26.1,26.1,26.1s26.1-11.7,26.1-26.1S40.5,0.3,26.1,0.3    C26.1,0.3,26.1,0.3,26.1,0.3z M26.1,51.3c-13.7,0-24.8-11.2-24.8-24.9c0-13.7,11.2-24.8,24.9-24.8c13.7,0,24.8,11.1,24.8,24.8    c0,13.7-11.1,24.9-24.8,24.9C26.1,51.3,26.1,51.3,26.1,51.3z"/>
		<path class="st1" d="M26,44.2c-2.2,0-4.3-0.4-6.4-1.1l0,0c-1.9-0.8-3.6-1.9-5.2-3.2l0,0c-1.5-1.4-2.8-3-3.8-4.8    c-0.9-1.7-1.5-3.6-1.9-5.6l0,0c-0.4-2-0.4-4.1-0.1-6.1l0,0c0.3-2.1,1-4,1.9-5.9c1-1.8,2.3-3.4,3.8-4.8l0,0    c0.8-0.7,1.7-1.4,2.6-1.9c0.8-0.5,1.7-0.9,2.5-1.3l0,0c2.1-0.7,4.2-1.1,6.4-1.1c-1-2.4-3.3-5.6-4.3-5.4l0,0    c-0.9,0.2-1.9,3.4-2.1,6C17.7,7.3,14.8,5.6,14,6l0,0c-0.8,0.5-0.4,3.9,0.4,6.4c-2.4-1.1-5.9-1.9-6.5-1.2l0,0c-0.6,0.7,1,4,2.6,6.1    c-2.6-0.2-6.4,0.4-6.7,1.3l0,0c-0.3,0.8,2.4,3.2,4.6,4.6c-2.5,0.7-5.9,2.3-5.9,3.2s3.4,2.4,6,3.1c-2.3,1.4-4.9,4.1-4.7,4.9l0,0    c0.3,0.8,4,1.2,6.6,1c-1.6,2.1-3.2,5.4-2.6,6.1l0,0c0.6,0.7,4.1-0.1,6.5-1.2c-0.8,2.5-1.1,6-0.4,6.5l0,0c0.8,0.4,3.8-1.4,5.7-3.2    c0.2,2.6,1.2,5.9,2.1,6.1l0,0C22.7,49.9,25,46.7,26,44.2z"/>
		<path class="st2" d="M49.2,28.5v-4.2c0-0.5-0.3-0.9-0.8-0.9l-3.9-0.2l3.4-1.4c0.4-0.2,0.6-0.7,0.5-1.1c0,0,0,0,0,0L47,16.8    c-0.1-0.4-0.6-0.7-1-0.6l-3.7,1l2.9-2.8c0.3-0.3,0.3-0.9,0-1.2c0,0,0,0,0,0L42.5,10c-0.3-0.4-0.8-0.5-1.2-0.2l-3.4,2.6l2-3.7    c0.2-0.4,0.1-0.9-0.4-1.2c0,0,0,0,0,0L36,5.3C35.6,5,35,5.1,34.8,5.5l-2.2,3.2l0.3-4c0-0.5-0.3-0.9-0.8-0.9l-4.1-0.5    c-0.5-0.1-0.9,0.2-1,0.7L26,8.5c0,0,0,0,0,0.1c6.3,0.1,12.2,3.5,15.4,8.9c3.2,5.5,3.2,12.3,0,17.8c-3.2,5.5-9,8.9-15.4,8.9    c0,0,0,0.1,0,0.1l0.8,4.5c0.1,0.5,0.5,0.8,1,0.7L32,49c0.5,0,0.8-0.4,0.8-0.9l-0.3-4l2.2,3.2c0.3,0.4,0.8,0.5,1.2,0.2l3.6-2.2    c0.4-0.2,0.6-0.7,0.4-1.2c0,0,0,0,0,0l-2-3.7l3.4,2.6c0.4,0.3,0.9,0.2,1.2-0.2l2.7-3.1c0.3-0.3,0.3-0.9,0-1.2c0,0,0,0,0,0    l-2.9-2.8l3.7,1c0.5,0.1,0.9-0.2,1-0.6l1.4-3.9c0.2-0.4,0-0.9-0.5-1.1c0,0,0,0,0,0l-3.2-1.3l3.7-0.2C48.8,29.4,49.2,29,49.2,28.5z    "/>

			<radialGradient id="SVGID_1_" cx="21.7413" cy="34.165" r="12.37" gradientTransform="matrix(1 0 0 -1 0 54)" gradientUnits="userSpaceOnUse">
			<stop offset="0" style="stop-color:#8E9FCC"/>
			<stop offset="0.27" style="stop-color:#6C8CC1"/>
			<stop offset="0.85" style="stop-color:#175DA5"/>
			<stop offset="1" style="stop-color:#00519E"/>
		</radialGradient>
		<path class="st3" d="M42.5,24.9c-0.8-9.1-8.8-15.8-17.9-15c-0.5,0-1,0.1-1.4,0.2c-1.2,0.2-2.3,0.5-3.5,1c-4.7,2-8.3,6-9.6,11    c-1.5,5.7,0.1,11.8,4.3,16c0.5,0.5,1.1,1.1,1.8,1.5c1.1,0.8,2.3,1.5,3.6,2.1c1.1,0.5,2.3,0.8,3.5,1c9,1.6,17.6-4.4,19.2-13.4    C42.6,27.8,42.7,26.4,42.5,24.9z M22.3,28.3c0.3,0.6,0.7,1.1,1.2,1.5c0.9,0.7,2,1.1,3.2,1.1c0.5,0,1-0.1,1.5-0.2    c0.3-0.1,0.6-0.2,0.9-0.3l0.5-0.4l0,0l0,0c0.6-0.4,1.3-0.7,2.1-0.8c1.1,0,2.1,0.8,3.1,2.3l0,0c0.5,0.7,0.8,1.5,0.9,2.4    c0,0.7-0.3,1.4-0.8,1.9c-0.4,0.4-0.8,0.7-1.2,1l-0.9,0.5c-0.7,0.4-1.5,0.7-2.3,0.9c-1.1,0.4-2.2,0.5-3.4,0.5    c-1.1,0-2.2-0.1-3.3-0.4c-1.2-0.3-2.3-0.8-3.4-1.4c-1.1-0.7-2.2-1.5-3.1-2.4c-1-1.1-1.8-2.4-2.3-3.7c-0.6-1.6-0.9-3.2-0.9-4.9    c0-1.6,0.3-3.3,0.9-4.8c0.5-1.3,1.3-2.6,2.3-3.6c0.9-0.9,2-1.7,3.1-2.4c2-1.2,4.3-1.8,6.6-1.8c1.1,0,2.2,0.2,3.3,0.5    c0.9,0.2,1.7,0.6,2.5,1l0.7,0.4l0,0c0.4,0.2,0.7,0.4,0.9,0.6l0,0l0,0c0.8,0.6,1.2,1.5,1.3,2.4c0,0.9-0.3,1.7-0.9,2.4    c-1,1.5-2.1,2.2-3.1,2.2c-0.8-0.1-1.6-0.4-2.2-0.9l0,0l0,0c-0.8-0.6-1.7-0.8-2.7-0.8c-1.2,0-2.3,0.4-3.2,1.1    c-0.5,0.4-0.9,0.9-1.2,1.5C21.7,25.3,21.7,26.9,22.3,28.3L22.3,28.3z"/>
		<path class="st4" d="M26.9,14.6c1,0,2,0.2,2.9,0.4c0.8,0.2,1.5,0.5,2.3,0.9l0.7,0.4c0.4,0.2,0.7,0.4,0.9,0.5    c0.5,0.3,0.8,0.9,0.8,1.5c0,0.6-0.3,1.2-0.6,1.7c-0.8,1.1-1.5,1.7-2.2,1.7c-0.6-0.1-1.1-0.3-1.6-0.7c-1-0.7-2.2-1.1-3.4-1    c-1.4,0-2.8,0.5-3.9,1.3c-0.7,0.5-1.2,1.2-1.5,1.9c-0.8,1.8-0.8,3.8,0,5.5c0.4,0.8,0.9,1.4,1.6,1.9c1.1,0.9,2.5,1.3,3.9,1.4    c0.6,0,1.2-0.1,1.8-0.3c0.4-0.1,0.8-0.3,1.2-0.5l0.5-0.4c0.4-0.3,0.9-0.5,1.5-0.6c0.6,0,1.3,0.6,2.1,1.7c0.4,0.5,0.6,1.1,0.7,1.7    c0,0.4-0.1,0.8-0.4,1.1c-0.3,0.3-0.6,0.6-1,0.8l-1,0.6c-0.7,0.3-1.4,0.6-2.1,0.8c-1,0.3-2,0.5-3,0.5c-1,0-2-0.1-2.9-0.4    c-1.1-0.3-2.1-0.7-3.1-1.3c-1-0.6-2-1.3-2.8-2.2c-0.9-1-1.6-2.1-2.1-3.3c-0.6-1.4-0.8-2.9-0.8-4.4c0-1.5,0.3-3,0.8-4.3    c0.5-1.2,1.1-2.3,2-3.2c0.9-0.8,1.8-1.5,2.9-2.1C22.7,15.3,24.8,14.7,26.9,14.6"/>
	</g>
</g>
</svg>