<svg version="1.1" xmlns="http://www.w3.org/2000/svg" viewBox="0 0 100 75">
<style type="text/css">
	.st0{fill:none;}
	.st1{fill:#00519E;}
	.st2{fill:#FFFFFF;}
	.st3{fill:#DD295F;}
	.st4{fill:url(#SVGID_1_);}
	.st5{fill:#F6B221;}
	.st6{fill:url(#SVGID_2_);}
</style>
<defs>
</defs>
<rect class="st0" width="100" height="75"/>
<g id="Capa_2_1_">
	<g id="Capa_1-2_1_">
		<path class="st1" d="M30.5,39.2l0.2-0.1c0.1-0.1,0.3-0.2,0.5-0.2c0.2,0,0.4,0.2,0.6,0.6c0.1,0.2,0.2,0.4,0.2,0.6
			c0,0.1-0.1,0.2-0.1,0.3c-0.1,0.1-0.2,0.2-0.3,0.3l-0.3,0.2c-0.2,0.1-0.4,0.2-0.7,0.3c-0.3,0.1-0.6,0.2-1,0.2c-0.3,0-0.6-0.1-1-0.1
			c-0.3-0.1-0.7-0.2-1-0.4c-0.3-0.2-0.6-0.4-0.9-0.7c-0.3-0.3-0.5-0.7-0.7-1.1c-0.2-0.4-0.3-0.9-0.3-1.4c0-0.5,0.1-1,0.3-1.4
			c0.1-0.4,0.4-0.7,0.6-1c0.3-0.3,0.6-0.5,0.9-0.7c0.6-0.3,1.3-0.5,1.9-0.5c0.6,0,1.1,0.2,1.7,0.4l0.2,0.1c0.1,0.1,0.2,0.1,0.3,0.2
			c0.1,0.1,0.3,0.3,0.3,0.5s-0.1,0.4-0.2,0.6c-0.3,0.4-0.5,0.6-0.7,0.6c-0.2,0-0.4-0.1-0.5-0.2c-0.3-0.3-0.7-0.4-1.1-0.3
			c-0.4,0-0.9,0.2-1.3,0.4c-0.2,0.2-0.4,0.4-0.5,0.6c-0.3,0.6-0.3,1.2,0,1.8c0.1,0.3,0.3,0.4,0.5,0.6c0.4,0.3,0.8,0.4,1.3,0.4
			c0.2,0,0.4,0,0.6-0.1C30.2,39.3,30.3,39.2,30.5,39.2z"/>
		<path class="st1" d="M50.5,39.2l0.2-0.1c0.1-0.1,0.3-0.2,0.5-0.2c0.2,0,0.4,0.2,0.7,0.6c0.1,0.2,0.2,0.4,0.2,0.6
			c0,0.1-0.1,0.3-0.1,0.3c-0.1,0.1-0.2,0.2-0.3,0.3l-0.3,0.2c-0.2,0.1-0.4,0.2-0.7,0.3c-0.3,0.1-0.6,0.2-1,0.2c-0.3,0-0.6-0.1-1-0.1
			c-0.3-0.1-0.7-0.2-1-0.4c-0.3-0.2-0.6-0.4-0.9-0.7c-0.3-0.3-0.5-0.7-0.7-1.1c-0.2-0.4-0.3-0.9-0.3-1.4c0-0.5,0.1-1,0.3-1.4
			c0.1-0.4,0.4-0.7,0.6-1c0.3-0.3,0.6-0.5,0.9-0.7c0.6-0.3,1.3-0.5,1.9-0.5c0.6,0,1.1,0.2,1.7,0.4l0.2,0.1c0.1,0.1,0.2,0.1,0.3,0.2
			c0.1,0.1,0.3,0.3,0.3,0.5s-0.1,0.4-0.2,0.6c-0.3,0.4-0.5,0.5-0.7,0.5c-0.2,0-0.4-0.1-0.5-0.2c-0.3-0.3-0.7-0.4-1.1-0.3
			c-0.4,0-0.9,0.2-1.3,0.4c-0.2,0.2-0.4,0.4-0.5,0.6c-0.3,0.6-0.3,1.2,0,1.8c0.1,0.3,0.3,0.4,0.5,0.6c0.4,0.3,0.8,0.4,1.3,0.4
			c0.2,0,0.4,0,0.6-0.1C50.2,39.3,50.4,39.2,50.5,39.2z"/>
		<path class="st1" d="M52.7,34.7c0-0.1,0-0.2,0-0.3c0-0.1,0.1-0.2,0.1-0.3c0.1-0.2,0.3-0.3,0.8-0.3c0.4,0,0.7,0.1,0.8,0.4
			c0,0.2,0.1,0.3,0.1,0.5v5.5c0,0.1,0,0.2,0,0.3c0,0.1-0.1,0.2-0.1,0.3c-0.1,0.2-0.3,0.3-0.8,0.3c-0.4,0-0.7-0.1-0.8-0.4
			c-0.1-0.2-0.1-0.3-0.1-0.5V34.7z"/>
		<path class="st1" d="M56.4,33.8c0.2,0,0.4,0,0.6,0.1c0.1,0,0.2,0.1,0.3,0.2c0.1,0.2,0.1,0.4,0.1,0.6v7.1c0,0.7-0.3,1.3-0.8,1.8
			c-0.5,0.5-1.2,0.8-1.9,0.8c-0.4,0-0.8-0.1-1.1-0.3c-0.2-0.1-0.4-0.3-0.6-0.4l-0.1-0.1c-0.2-0.2-0.3-0.4-0.3-0.6
			c0-0.3,0.2-0.4,0.3-0.6c0.1-0.2,0.4-0.3,0.6-0.4c0.2,0,0.4,0.1,0.6,0.3c0.2,0.2,0.4,0.3,0.7,0.3c0.2,0,0.4-0.1,0.6-0.3
			c0.2-0.2,0.3-0.4,0.3-0.7v-7c0-0.4,0.1-0.6,0.2-0.8C56,33.9,56.2,33.8,56.4,33.8z"/>
		<path class="st1" d="M62.9,34.1c0.1-0.1,0.2-0.2,0.3-0.2c0.1-0.1,0.3-0.1,0.5-0.1c0.1,0,0.3,0,0.4,0.1c0.1,0,0.2,0.1,0.3,0.1
			c0.1,0.1,0.1,0.1,0.1,0.2c0.1,0.2,0.1,0.3,0.1,0.5v3c0,0.9-0.3,1.7-0.8,2.4c-0.3,0.3-0.6,0.6-1,0.8c-0.4,0.2-0.9,0.3-1.4,0.3
			c-0.5,0-1-0.1-1.4-0.3c-0.4-0.2-0.7-0.5-1-0.8c-0.5-0.7-0.8-1.5-0.8-2.4v-2.9c0-0.1,0-0.2,0-0.4c0-0.1,0.1-0.2,0.1-0.3
			c0.1-0.1,0.1-0.2,0.3-0.2c0.3-0.1,0.7-0.1,1,0c0.1,0,0.2,0.1,0.3,0.2c0.1,0.2,0.1,0.4,0.1,0.6v3c0,0.4,0.1,0.8,0.3,1.1
			c0.1,0.2,0.3,0.3,0.4,0.4c0.2,0.1,0.4,0.2,0.7,0.2c0.4,0,0.8-0.2,1.1-0.5c0.3-0.4,0.4-0.8,0.4-1.2v-3
			C62.7,34.5,62.8,34.3,62.9,34.1z"/>
		<path class="st1" d="M67.1,39.3h3c0.1,0,0.2,0,0.3,0c0.1,0,0.2,0.1,0.3,0.1c0.2,0.1,0.3,0.3,0.3,0.8c0,0.4-0.1,0.7-0.4,0.8
			C70.4,41,70.2,41,70.1,41h-3.9c-0.4,0-0.7-0.1-0.8-0.4c-0.1-0.2-0.1-0.3-0.1-0.5v-5.5c0-0.3,0-0.5,0.2-0.7
			c0.2-0.1,0.4-0.2,0.7-0.2h3.9c0.1,0,0.2,0,0.3,0c0.1,0,0.2,0.1,0.3,0.1c0.2,0.1,0.3,0.3,0.3,0.8c0,0.4-0.1,0.7-0.4,0.8
			c-0.2,0.1-0.3,0.1-0.5,0.1h-3v1h2c0.1,0,0.2,0,0.3,0c0.1,0,0.2,0.1,0.3,0.1c0.2,0.1,0.3,0.3,0.3,0.8c0,0.4-0.1,0.7-0.4,0.8
			c-0.2,0.1-0.3,0.1-0.5,0.1H67L67.1,39.3z"/>
		<path class="st1" d="M75.3,36.7h1.7c0.4,0,0.6,0.1,0.6,0.3c0.1,0.2,0.1,0.4,0.1,0.6v2.2c0,0.2-0.1,0.4-0.3,0.6
			c-0.6,0.6-1.4,0.9-2.5,0.9c-1,0-1.9-0.4-2.5-1.1c-0.7-0.7-1.1-1.7-1.1-2.7c0-1,0.4-1.9,1.1-2.6c1.3-1.3,3.4-1.4,4.8-0.3
			c0.1,0.1,0.3,0.3,0.3,0.4c0,0.2-0.1,0.4-0.2,0.6c-0.3,0.3-0.5,0.5-0.7,0.5c-0.2,0-0.4-0.1-0.6-0.3c-0.3-0.2-0.6-0.3-1-0.3
			c-0.5,0-1,0.2-1.3,0.5c-0.4,0.4-0.6,0.9-0.6,1.4c0,0.5,0.2,1.1,0.6,1.5c0.3,0.4,0.8,0.6,1.3,0.6c0.3,0,0.7-0.1,1-0.2v-1.1h-0.8
			c-0.1,0-0.3,0-0.4-0.1c-0.1-0.1-0.1-0.1-0.2-0.2c0-0.1-0.1-0.3,0-0.4c0-0.1,0-0.3,0.1-0.4c0-0.1,0.1-0.2,0.2-0.2
			C75,36.7,75.2,36.7,75.3,36.7z"/>
		<path class="st1" d="M82,33.7c1,0,1.8,0.4,2.5,1.1c0.7,0.7,1.1,1.6,1.1,2.6c0,1-0.3,1.9-1,2.7c-0.6,0.7-1.6,1.1-2.5,1.1
			c-1,0-1.9-0.4-2.5-1.1c-0.7-0.7-1.1-1.6-1-2.6c0-0.5,0.1-1,0.3-1.5c0.2-0.4,0.4-0.9,0.8-1.2c0.3-0.3,0.7-0.6,1.1-0.8
			C81.1,33.8,81.5,33.7,82,33.7z M80.2,37.5c0,0.5,0.2,1,0.6,1.4c0.7,0.7,1.8,0.7,2.5,0.1c0,0,0,0,0.1-0.1c0.4-0.4,0.6-0.9,0.6-1.4
			c0-0.5-0.2-1.1-0.6-1.4c-0.3-0.3-0.8-0.5-1.3-0.5s-0.9,0.2-1.3,0.6C80.4,36.4,80.2,36.9,80.2,37.5L80.2,37.5z"/>
		<path class="st1" d="M86.4,40c-0.1-0.1-0.2-0.4-0.3-0.6c0-0.2,0.1-0.4,0.4-0.7c0.1-0.1,0.3-0.2,0.5-0.2c0.2,0,0.4,0.2,0.8,0.5
			c0.1,0.1,0.3,0.2,0.4,0.3c0.1,0.1,0.3,0.1,0.5,0.1c0.6,0,0.9-0.3,0.9-0.8c0-0.2-0.1-0.3-0.3-0.4c-0.2-0.1-0.4-0.2-0.6-0.2
			c-0.3-0.1-0.5-0.1-0.8-0.2c-0.3-0.1-0.6-0.2-0.8-0.4c-0.3-0.2-0.5-0.4-0.6-0.6c-0.2-0.3-0.3-0.7-0.3-1.1c0-0.6,0.2-1.1,0.6-1.5
			c0.5-0.4,1.1-0.7,1.8-0.6c0.4,0,0.7,0.1,1.1,0.2c0.3,0.1,0.5,0.2,0.7,0.3l0.3,0.2c0.2,0.1,0.3,0.3,0.3,0.5c0,0.2-0.1,0.4-0.2,0.5
			c-0.2,0.3-0.4,0.5-0.7,0.5c-0.2,0-0.4-0.1-0.5-0.2c0,0-0.1-0.1-0.1-0.1c-0.1-0.1-0.1-0.1-0.1-0.1c-0.2-0.1-0.3-0.1-0.5-0.1
			c-0.2,0-0.4,0.1-0.5,0.1c-0.1,0.1-0.2,0.3-0.2,0.4s0.1,0.3,0.3,0.4c0.2,0.1,0.4,0.2,0.6,0.2c0.3,0.1,0.6,0.1,0.8,0.2
			c0.3,0.1,0.6,0.2,0.8,0.3c0.3,0.1,0.5,0.3,0.6,0.6c0.2,0.3,0.3,0.7,0.3,1.1s-0.1,0.8-0.3,1.1c-0.2,0.3-0.4,0.6-0.7,0.8
			c-0.5,0.3-1.1,0.5-1.7,0.5c-0.3,0-0.6,0-0.9-0.1c-0.5-0.1-1-0.4-1.4-0.9L86.4,40z"/>
		<path class="st1" d="M45.1,34.2c0-0.1-0.1-0.1-0.1-0.2c-0.1-0.1-0.2-0.1-0.3-0.1c-0.1,0-0.3-0.1-0.4-0.1c-0.2,0-0.3,0-0.5,0.1
			c-0.1,0-0.2,0.1-0.3,0.2c-0.1,0.2-0.1,0.4-0.1,0.5v3c0,0.4-0.1,0.9-0.4,1.2c-0.2,0.4-0.6,0.6-1.1,0.5c-0.3,0-0.5-0.1-0.7-0.2
			c-0.2-0.1-0.3-0.3-0.4-0.4c-0.2-0.3-0.3-0.8-0.3-1.1v-2.9c0-0.2,0-0.4-0.1-0.6c-0.1-0.1-0.1-0.2-0.3-0.2c-0.3-0.1-0.7-0.1-1,0
			c-0.1,0-0.2,0.1-0.3,0.2c-0.1,0.1-0.1,0.2-0.1,0.3c0,0.1,0,0.2,0,0.4v2.9c0,0.6,0.1,1.1,0.4,1.7l0,0c-0.9,1-1.5-0.4-1.5-0.4
			l-0.3-0.7c0.2-0.2,0.4-0.4,0.5-0.7c0.2-0.4,0.3-0.8,0.3-1.1s-0.1-0.8-0.3-1.1c-0.1-0.3-0.4-0.6-0.6-0.8c-0.5-0.4-1.1-0.6-1.7-0.6
			h-2.1c-0.4,0-0.7,0.1-0.8,0.3c-0.1,0.1-0.1,0.2-0.1,0.3c0,0.1,0,0.2,0,0.3v5.5c0,0.2,0,0.3,0.1,0.5c0.1,0.3,0.3,0.4,0.8,0.4
			c0.4,0,0.7-0.1,0.8-0.3c0.1-0.1,0.1-0.2,0.1-0.3c0-0.1,0-0.2,0-0.3V39h1.2c0.1,0,0.2,0,0.3,0l0,0c0,0,0.1,0.3,0.4,1
			c0.3,0.7,1,1.4,2.3,1.4c0.6,0,1.3-0.3,1.8-0.6l0,0c0.1,0.1,0.1,0.1,0.2,0.1c0.4,0.2,0.9,0.3,1.4,0.3c0.5,0,1-0.1,1.4-0.3
			c0.4-0.2,0.7-0.5,1-0.8c0.5-0.7,0.8-1.5,0.8-2.4v-2.9C45.2,34.6,45.2,34.4,45.1,34.2z M34.4,37.3v-1.7h1.2c0.2,0,0.4,0.1,0.6,0.2
			c0.2,0.2,0.3,0.4,0.3,0.6c0,0.3-0.1,0.5-0.3,0.6c-0.2,0.1-0.4,0.2-0.6,0.2H34.4z"/>
		<path class="st2" d="M15.9,30.3c-4,0-7.2,3.2-7.2,7.2s3.2,7.2,7.2,7.2s7.2-3.2,7.2-7.2l0,0C23.1,33.6,19.9,30.3,15.9,30.3z"/>
		<path class="st1" d="M15.9,30.2c-4.1,0-7.3,3.3-7.3,7.3s3.3,7.3,7.3,7.3s7.3-3.3,7.3-7.3S20,30.2,15.9,30.2L15.9,30.2z M15.9,44.5
			c-3.8,0-6.9-3.1-6.9-7s3.1-6.9,7-6.9s6.9,3.1,6.9,6.9S19.8,44.5,15.9,44.5C15.9,44.5,15.9,44.5,15.9,44.5z"/>
		<path class="st1" d="M15.9,42.5c-0.6,0-1.2-0.1-1.8-0.3l0,0c-0.5-0.2-1-0.5-1.5-0.9l0,0c-0.4-0.4-0.8-0.8-1.1-1.3
			c-0.3-0.5-0.4-1-0.5-1.6l0,0c-0.1-0.6-0.1-1.1,0-1.7l0,0c0.1-0.6,0.3-1.1,0.5-1.7c0.3-0.5,0.6-1,1.1-1.3l0,0
			c0.2-0.2,0.5-0.4,0.7-0.5c0.2-0.1,0.5-0.3,0.7-0.4l0,0c0.6-0.2,1.2-0.3,1.8-0.3c-0.3-0.7-0.9-1.6-1.2-1.5l0,0
			c-0.3,0.1-0.5,1-0.6,1.7c-0.5-0.5-1.3-1-1.5-0.8l0,0c-0.2,0.1-0.1,1.1,0.1,1.8C12,33.3,11,33,10.8,33.2l0,0
			c-0.2,0.2,0.3,1.1,0.7,1.7c-0.7-0.1-1.8,0.1-1.9,0.4l0,0c-0.1,0.2,0.7,0.9,1.3,1.3c-0.7,0.2-1.7,0.6-1.7,0.9s1,0.7,1.7,0.9
			c-0.6,0.4-1.4,1.1-1.3,1.4l0,0c0.1,0.2,1.1,0.3,1.8,0.3c-0.4,0.6-0.9,1.5-0.7,1.7l0,0c0.2,0.2,1.1,0,1.8-0.3
			c-0.2,0.7-0.3,1.7-0.1,1.8l0,0c0.2,0.1,1.1-0.4,1.6-0.9c0.1,0.7,0.3,1.7,0.6,1.7l0,0C15,44.1,15.6,43.2,15.9,42.5z"/>
		<path class="st3" d="M22.4,38.1v-1.2c0-0.1-0.1-0.3-0.2-0.3l-1.1-0.1l1-0.4c0.1-0.1,0.2-0.2,0.1-0.3l0,0l-0.4-1.1
			c0-0.1-0.2-0.2-0.3-0.2l-1,0.3l0.8-0.8c0.1-0.1,0.1-0.3,0-0.3l0,0l-0.8-0.9c-0.1-0.1-0.2-0.1-0.3-0.1l-1,0.7l0.6-1
			c0.1-0.1,0-0.3-0.1-0.3l0,0l-1-0.6c-0.1-0.1-0.3-0.1-0.3,0.1l-0.6,0.9l0.1-1.1c0-0.1-0.1-0.3-0.2-0.3L16.5,31
			c-0.1,0-0.3,0.1-0.3,0.2l-0.3,1.3c0,0,0,0,0,0c1.8,0,3.4,1,4.3,2.5c0.9,1.5,0.9,3.4,0,5s-2.5,2.5-4.3,2.5v0l0.2,1.3
			c0,0.1,0.1,0.2,0.3,0.2l1.2-0.1c0.1,0,0.2-0.1,0.2-0.3l-0.1-1.1l0.6,0.9c0.1,0.1,0.2,0.1,0.3,0.1l1-0.6c0.1-0.1,0.2-0.2,0.1-0.3
			l0,0l-0.6-1l1,0.7c0.1,0.1,0.3,0.1,0.3-0.1l0.8-0.9c0.1-0.1,0.1-0.3,0-0.3l0,0l-0.8-0.8l1,0.3c0.1,0,0.3-0.1,0.3-0.2l0.4-1.1
			c0.1-0.1,0-0.3-0.1-0.3l0,0l-0.9-0.4l1-0.1C22.3,38.3,22.4,38.2,22.4,38.1z"/>

			<radialGradient id="SVGID_1_" cx="14.7213" cy="781.6613" r="3.4646" gradientTransform="matrix(1 0 0 1 0 -746)" gradientUnits="userSpaceOnUse">
			<stop  offset="0" style="stop-color:#8E9FCC"/>
			<stop  offset="0.27" style="stop-color:#6C8CC1"/>
			<stop  offset="0.85" style="stop-color:#175DA5"/>
			<stop  offset="1" style="stop-color:#00519E"/>
		</radialGradient>
		<path class="st4" d="M20.5,37.1c-0.2-2.5-2.5-4.4-5-4.2c-0.1,0-0.3,0-0.4,0.1c-0.3,0.1-0.6,0.1-1,0.3c-1.3,0.6-2.3,1.7-2.7,3.1
			c-0.4,1.6,0,3.3,1.2,4.5c0.1,0.1,0.3,0.3,0.5,0.4c0.3,0.2,0.6,0.4,1,0.6c0.3,0.1,0.6,0.2,1,0.3c2.5,0.4,4.9-1.2,5.4-3.8
			C20.6,37.9,20.6,37.5,20.5,37.1z M14.9,38c0.1,0.2,0.2,0.3,0.3,0.4c0.3,0.2,0.6,0.3,0.9,0.3c0.1,0,0.3,0,0.4-0.1
			c0.1,0,0.2-0.1,0.3-0.1l0.1-0.1l0,0l0,0c0.2-0.1,0.4-0.2,0.6-0.2c0.3,0,0.6,0.2,0.9,0.6l0,0c0.1,0.2,0.2,0.4,0.3,0.7
			c0,0.2-0.1,0.4-0.2,0.5c-0.1,0.1-0.2,0.2-0.3,0.3l-0.3,0.1c-0.2,0.1-0.4,0.2-0.6,0.3c-0.3,0.1-0.6,0.1-1,0.1c-0.3,0-0.6,0-0.9-0.1
			c-0.3-0.1-0.6-0.2-1-0.4c-0.3-0.2-0.6-0.4-0.9-0.7c-0.3-0.3-0.5-0.7-0.6-1c-0.2-0.4-0.3-0.9-0.3-1.4c0-0.4,0.1-0.9,0.3-1.3
			c0.1-0.4,0.4-0.7,0.6-1c0.3-0.3,0.6-0.5,0.9-0.7c0.6-0.3,1.2-0.5,1.8-0.5c0.3,0,0.6,0.1,0.9,0.1c0.3,0.1,0.5,0.2,0.7,0.3l0.2,0.1
			l0,0c0.1,0.1,0.2,0.1,0.3,0.2l0,0l0,0c0.2,0.2,0.3,0.4,0.4,0.7c0,0.3-0.1,0.5-0.3,0.7c-0.3,0.4-0.6,0.6-0.9,0.6
			c-0.2,0-0.4-0.1-0.6-0.3l0,0l0,0c-0.2-0.2-0.5-0.2-0.8-0.2c-0.3,0-0.6,0.1-0.9,0.3c-0.1,0.1-0.3,0.3-0.3,0.4
			C14.7,37.2,14.7,37.6,14.9,38L14.9,38z"/>
		<path class="st5" d="M16.2,34.2c0.3,0,0.6,0.1,0.8,0.1c0.2,0.1,0.4,0.1,0.6,0.3l0.2,0.1c0.1,0.1,0.2,0.1,0.3,0.1
			c0.1,0.1,0.2,0.3,0.2,0.4s-0.1,0.3-0.2,0.5c-0.2,0.3-0.4,0.5-0.6,0.5c-0.2,0-0.3-0.1-0.4-0.2c-0.3-0.2-0.6-0.3-1-0.3
			c-0.4,0-0.8,0.1-1.1,0.4c-0.2,0.1-0.3,0.3-0.4,0.5c-0.2,0.5-0.2,1.1,0,1.5c0.1,0.2,0.3,0.4,0.4,0.5c0.3,0.3,0.7,0.4,1.1,0.4
			c0.2,0,0.3,0,0.5-0.1c0.1,0,0.2-0.1,0.3-0.1l0.1-0.1c0.1-0.1,0.3-0.1,0.4-0.2c0.2,0,0.4,0.2,0.6,0.5c0.1,0.1,0.2,0.3,0.2,0.5
			c0,0.1,0,0.2-0.1,0.3C18.1,39.9,18,40,17.9,40l-0.3,0.2c-0.2,0.1-0.4,0.2-0.6,0.2c-0.3,0.1-0.6,0.1-0.8,0.1s-0.6,0-0.8-0.1
			c-0.3-0.1-0.6-0.2-0.9-0.4c-0.3-0.2-0.6-0.4-0.8-0.6c-0.3-0.3-0.4-0.6-0.6-0.9c-0.2-0.4-0.2-0.8-0.2-1.2c0-0.4,0.1-0.8,0.2-1.2
			c0.1-0.3,0.3-0.6,0.6-0.9c0.3-0.2,0.5-0.4,0.8-0.6C15,34.4,15.6,34.2,16.2,34.2"/>
	</g>
</g>
</svg>
