<!-- Generator: Adobe Illustrator 24.1.0, SVG Export Plug-In  -->
<svg version="1.1" xmlns="http://www.w3.org/2000/svg" xmlns:xlink="http://www.w3.org/1999/xlink" x="0px" y="0px" width="400px"
	 height="300px" viewBox="0 0 400 300" style="enable-background:new 0 0 400 300;" xml:space="preserve">
<style type="text/css">
	.st0{fill:none;}
	.st1{fill:#FFFFFF;}
	.st2{fill:#00519E;}
	.st3{fill:#DD295F;}
	.st4{fill:#F6B221;}
</style>
<defs>
</defs>
<g>
	<rect class="st0" width="400" height="300"/>
	<g id="Capa_2_1_">
		<g id="Capa_1-2_1_">
			<path class="st1" d="M120.2,156.6l0.7-0.6c0.6-0.4,1.2-0.7,1.9-0.8c0.8,0,1.7,0.8,2.6,2.2c0.4,0.7,0.8,1.5,0.9,2.2
				c0,0.4-0.2,0.9-0.6,1.3c-0.3,0.3-0.8,0.7-1.2,1l-1.3,0.8c-0.9,0.4-1.8,0.8-2.7,1c-1.2,0.4-2.6,0.7-3.9,0.7
				c-1.2,0-2.6-0.2-3.8-0.4c-1.3-0.3-2.7-0.9-3.9-1.7c-1.3-0.8-2.6-1.7-3.7-2.8c-1.1-1.2-2-2.7-2.7-4.3c-0.7-1.8-1-3.7-1-5.7
				c0-1.9,0.3-3.8,1-5.6c0.6-1.6,1.5-2.9,2.6-4.2c1.1-1.1,2.2-2,3.7-2.7c2.4-1.3,5.1-2.1,7.7-2.1c2.4,0.1,4.6,0.7,6.6,1.8l0.9,0.6
				c0.4,0.3,0.9,0.6,1.1,0.7c0.6,0.4,1,1.1,1,1.9s-0.3,1.6-0.8,2.2c-1,1.5-2,2.2-2.8,2.2c-0.8-0.1-1.5-0.4-2-0.9
				c-1.2-1-2.8-1.5-4.4-1.3c-1.8,0-3.6,0.7-5.1,1.8c-0.9,0.7-1.6,1.5-2,2.5c-1,2.2-1,4.8,0,7.2c0.4,1,1.1,1.8,2,2.5
				c1.5,1.1,3.1,1.7,5.1,1.7c0.8,0,1.6-0.1,2.4-0.3C119.2,157.2,119.8,157,120.2,156.6z"/>
			<path class="st1" d="M200.5,156.6l0.7-0.6c0.6-0.4,1.2-0.7,1.9-0.8c0.8,0,1.7,0.8,2.7,2.2c0.4,0.7,0.8,1.5,0.9,2.2
				c0,0.6-0.2,1-0.6,1.3s-0.8,0.7-1.2,1l-1.3,0.8c-0.9,0.4-1.8,0.8-2.7,1c-1.2,0.4-2.6,0.7-3.9,0.7c-1.2,0-2.6-0.2-3.8-0.4
				c-1.3-0.3-2.7-0.9-3.9-1.7c-1.3-0.8-2.6-1.7-3.7-2.8c-1.1-1.2-2-2.7-2.7-4.3c-0.7-1.8-1-3.7-1-5.7c0-1.9,0.3-3.8,1-5.6
				c0.6-1.6,1.5-2.9,2.6-4.2c1.1-1.1,2.2-2,3.7-2.7c2.4-1.3,5.1-2.1,7.7-2.1c2.4,0.1,4.6,0.7,6.6,1.8l0.9,0.6
				c0.4,0.3,0.9,0.6,1.1,0.7c0.6,0.4,1,1.1,1,1.9s-0.3,1.6-0.8,2.2c-1,1.5-1.9,2.1-2.8,2.1c-0.8-0.1-1.5-0.4-2-0.9
				c-1.2-1-2.8-1.5-4.5-1.3c-1.8,0-3.6,0.7-5.1,1.8c-0.9,0.7-1.6,1.5-2,2.5c-1,2.2-1,4.8,0,7.2c0.4,1,1.1,1.8,2,2.5
				c1.5,1.1,3.3,1.7,5.1,1.7c0.8,0,1.6-0.1,2.4-0.3C199.5,157.2,200.1,157,200.5,156.6z"/>
			<path class="st1" d="M209.3,138.8c0-0.4,0-0.9,0.1-1.3c0.1-0.3,0.2-0.7,0.3-1c0.3-0.7,1.3-1.1,3-1c1.8,0,2.9,0.4,3.3,1.5
				c0.1,0.7,0.2,1.3,0.2,2v21.9c0,0.4,0,0.9-0.1,1.3c-0.1,0.3-0.2,0.7-0.3,1c-0.3,0.8-1.3,1.1-3,1.1c-1.8,0-2.9-0.4-3.3-1.5
				c-0.2-0.7-0.2-1.3-0.2-2V138.8z"/>
			<path class="st1" d="M224.4,135.3c0.8,0,1.5,0.1,2.2,0.2c0.4,0.1,0.8,0.4,1,0.9c0.3,0.8,0.4,1.6,0.4,2.5v28.5
				c0,2.7-1.1,5.4-3,7.3c-2,2.1-4.7,3.3-7.6,3.1c-1.6,0-3.3-0.3-4.6-1.1c-0.9-0.4-1.8-1-2.6-1.8l-0.3-0.3c-0.8-0.7-1.2-1.6-1.3-2.5
				c0.1-1,0.7-1.8,1.3-2.5c0.6-0.8,1.5-1.2,2.5-1.5c0.9,0.1,1.8,0.6,2.4,1.3c0.7,0.8,1.7,1.2,2.8,1.3c0.9,0,1.8-0.3,2.5-1
				c0.7-0.8,1-1.7,1-2.7v-28.1c0-1.6,0.2-2.6,0.8-3C222.6,135.5,223.5,135.3,224.4,135.3z"/>
			<path class="st1" d="M250.3,136.4c0.2-0.4,0.7-0.7,1.1-0.9c0.6-0.2,1.2-0.2,1.9-0.2c0.6,0,1.2,0,1.8,0.2c0.3,0.1,0.7,0.2,1,0.4
				c0.2,0.2,0.4,0.6,0.6,0.8c0.2,0.7,0.2,1.3,0.2,2v11.9c0,3.5-1.1,6.7-3.3,9.4c-1.1,1.3-2.5,2.5-4,3.3c-1.7,0.9-3.6,1.2-5.5,1.2
				s-3.8-0.4-5.5-1.2c-1.6-0.8-2.9-1.9-4-3.4c-2.1-2.7-3.3-6.1-3.3-9.4v-11.8c0-0.4,0-0.9,0.1-1.5c0.1-0.3,0.2-0.7,0.3-1
				c0.2-0.4,0.6-0.7,1-0.8c1.3-0.3,2.7-0.3,4,0c0.4,0.1,0.8,0.4,1,0.8c0.3,0.8,0.6,1.7,0.4,2.5v11.9c0,1.6,0.4,3.1,1.2,4.6
				c0.4,0.8,1,1.3,1.8,1.8c0.9,0.4,1.8,0.7,2.8,0.7c1.7,0.1,3.4-0.7,4.3-2.1c1-1.5,1.5-3.1,1.5-4.9v-12.1
				C249.7,137.9,249.9,137.1,250.3,136.4z"/>
			<path class="st1" d="M267,157.3h12.1c0.4,0,0.9,0,1.3,0c0.3,0.1,0.7,0.2,1,0.3c0.7,0.3,1,1.3,1,3c0,1.8-0.4,2.9-1.5,3.3
				c-0.7,0.2-1.3,0.2-2,0.2h-15.6c-1.8,0-2.9-0.4-3.3-1.5c-0.2-0.7-0.2-1.3-0.2-2v-21.9c-0.1-1,0.1-1.9,0.8-2.7
				c0.8-0.6,1.8-0.9,2.8-0.7H279c0.4,0,0.9,0,1.3,0.1c0.3,0.1,0.7,0.2,1,0.3c0.7,0.3,1,1.3,1,3c0,1.8-0.4,2.9-1.5,3.3
				c-0.7,0.2-1.3,0.2-2,0.2h-12.1v3.9h7.9c0.4,0,0.9,0,1.3,0c0.3,0.1,0.7,0.2,1,0.3c0.8,0.3,1.1,1.3,1,3c0,1.8-0.4,2.9-1.5,3.3
				c-0.7,0.2-1.3,0.2-2,0.2h-7.7L267,157.3z"/>
			<path class="st1" d="M300.2,146.9h7c1.5,0,2.2,0.4,2.6,1.1c0.3,0.7,0.4,1.5,0.4,2.2v8.6c0,0.9-0.4,1.8-1.1,2.4
				c-2.2,2.2-5.6,3.5-10,3.5c-3.9,0-7.6-1.6-10.2-4.5c-2.8-2.8-4.4-6.7-4.4-10.7c-0.1-3.9,1.5-7.7,4.4-10.4
				c5.2-5.2,13.5-5.6,19.2-1.1c0.6,0.3,1,1,1,1.8c-0.1,0.8-0.3,1.6-0.9,2.2c-1,1.3-1.9,2.1-2.8,2.1c-0.9-0.1-1.7-0.6-2.4-1.1
				c-1.1-0.8-2.6-1.1-3.9-1.1c-2,0-3.9,0.8-5.3,2.1c-1.6,1.5-2.4,3.5-2.4,5.5c0,2.1,0.8,4.3,2.4,5.8c1.3,1.5,3.4,2.4,5.4,2.4
				c1.3,0,2.7-0.2,3.9-0.7v-4.3H300c-0.6,0-1.2-0.1-1.8-0.3c-0.3-0.2-0.6-0.6-0.7-0.9c-0.1-0.6-0.2-1.1-0.1-1.7c0-0.6,0-1.1,0.2-1.7
				c0.1-0.3,0.3-0.7,0.7-0.9C298.9,146.9,299.6,146.7,300.2,146.9z"/>
			<path class="st1" d="M327,135c3.8,0,7.4,1.5,10.1,4.3c2.8,2.7,4.4,6.5,4.3,10.4c0.1,3.9-1.3,7.7-4,10.7
				c-2.6,2.9-6.3,4.5-10.1,4.4c-3.8,0.1-7.5-1.5-10.2-4.4c-2.7-2.7-4.3-6.5-4.2-10.3c0-2.1,0.3-4.2,1.2-6.2c0.7-1.8,1.8-3.5,3.1-4.8
				c1.3-1.2,2.8-2.4,4.5-3C323.3,135.3,325,135,327,135z M319.8,149.9c-0.1,2.1,0.7,4.2,2.2,5.7c2.7,2.8,7.1,2.9,9.9,0.2
				c0.1-0.1,0.1-0.1,0.2-0.2c1.6-1.5,2.4-3.6,2.2-5.7c0.1-2.1-0.7-4.3-2.2-5.7c-1.3-1.3-3.1-2.1-5.1-2.1c-1.9,0-3.7,0.8-5.1,2.2
				C320.4,145.6,319.7,147.8,319.8,149.9L319.8,149.9z"/>
			<path class="st1" d="M344.4,160.2c-0.6-0.6-0.9-1.5-1-2.2c0-0.7,0.6-1.6,1.7-2.7c0.6-0.6,1.3-0.9,2.1-0.9s1.8,0.7,3,2
				c0.4,0.6,1,0.9,1.6,1.2s1.2,0.6,1.9,0.6c2.5,0,3.7-1,3.7-3c0-0.7-0.4-1.2-1-1.6c-0.8-0.4-1.6-0.8-2.5-0.9
				c-1.1-0.2-2.1-0.6-3.3-0.9s-2.2-0.9-3.3-1.5c-1-0.7-1.9-1.6-2.5-2.6c-0.7-1.3-1-2.8-1-4.4c0-2.2,0.9-4.5,2.6-6.1
				c1.9-1.8,4.5-2.7,7.1-2.6c1.5,0,2.9,0.2,4.4,0.7c1,0.2,1.9,0.7,2.7,1.2l1,0.8c0.7,0.4,1.1,1.1,1.2,1.9c-0.1,0.8-0.4,1.6-0.9,2.1
				c-0.9,1.3-1.8,2-2.8,2c-0.8-0.1-1.5-0.3-2-0.8c-0.1-0.1-0.3-0.2-0.4-0.4c-0.2-0.2-0.4-0.3-0.6-0.6c-0.7-0.3-1.3-0.6-2.1-0.6
				c-0.8,0-1.5,0.2-2.1,0.6c-0.6,0.3-0.9,1-0.9,1.7s0.3,1.3,1,1.8c0.8,0.4,1.6,0.8,2.5,0.9c1.1,0.2,2.2,0.4,3.3,0.7
				c1.1,0.3,2.2,0.7,3.3,1.2c1.1,0.6,1.9,1.3,2.5,2.5c0.7,1.3,1,2.8,1,4.4s-0.3,3.1-1,4.5c-0.7,1.2-1.6,2.2-2.7,3
				c-2,1.3-4.4,2.1-6.8,2.1c-1.2,0-2.4-0.1-3.5-0.4c-2.1-0.6-4.2-1.8-5.6-3.6L344.4,160.2z"/>
			<path class="st1" d="M179.1,136.9c-0.1-0.3-0.2-0.6-0.6-0.8s-0.7-0.3-1-0.4c-0.6-0.1-1.2-0.2-1.8-0.2c-0.7,0-1.2,0.1-1.9,0.2
				c-0.4,0.1-0.9,0.4-1.1,0.9c-0.3,0.7-0.4,1.5-0.3,2.1v12c0,1.8-0.4,3.5-1.5,4.9c-0.9,1.5-2.6,2.2-4.3,2.1c-1,0-1.9-0.2-2.8-0.7
				c-0.8-0.4-1.3-1-1.8-1.8c-0.8-1.3-1.2-3-1.2-4.6v-11.8c0-0.8-0.1-1.7-0.4-2.5c-0.2-0.4-0.6-0.7-1-0.8c-1.3-0.3-2.7-0.3-4,0
				c-0.4,0.1-0.8,0.4-1,0.8c-0.2,0.3-0.3,0.7-0.3,1c0,0.4-0.1,0.9-0.1,1.5v11.8c0,2.4,0.6,4.6,1.6,6.7l0,0c-3.7,3.9-5.8-1.7-5.8-1.7
				l-1.1-2.7c0.8-0.8,1.5-1.7,1.9-2.7c0.7-1.5,1-3,1-4.6s-0.3-3.3-1-4.6c-0.6-1.3-1.5-2.5-2.6-3.4c-1.9-1.6-4.3-2.5-6.7-2.6h-8.5
				c-1.7,0-2.7,0.3-3,1c-0.2,0.3-0.3,0.7-0.3,1c0,0.4-0.1,0.9-0.1,1.3v21.9c0,0.7,0,1.3,0.2,2c0.3,1,1.3,1.5,3.3,1.5
				c1.7,0,2.7-0.3,3-1.1c0.2-0.3,0.3-0.7,0.3-1c0-0.4,0.1-0.9,0.1-1.3V156h4.9c0.4,0,0.9,0,1.3-0.1l0,0c0,0,0.6,1.3,1.7,4
				s3.9,5.5,9.2,5.5c2.6-0.1,5.2-1,7.2-2.6l0,0c0.2,0.2,0.6,0.3,0.9,0.4c1.7,0.9,3.6,1.2,5.5,1.2s3.8-0.4,5.5-1.2
				c1.6-0.8,2.9-1.9,4-3.3c2.1-2.7,3.3-6.1,3.3-9.4v-11.7C179.4,138.2,179.3,137.5,179.1,136.9z M136,149.3v-7h4.9
				c0.9,0,1.7,0.3,2.4,0.9c0.8,0.7,1.2,1.6,1.1,2.6c0.1,1-0.3,2-1.1,2.6c-0.7,0.6-1.5,0.9-2.4,0.9H136z"/>
			<path class="st1" d="M62.1,120.7c-16.3,0-29.3,13.1-29.3,29.3s13.1,29.3,29.3,29.3s29.3-13.1,29.3-29.3S78.3,120.7,62.1,120.7
				L62.1,120.7z"/>
			<path class="st2" d="M62,170c-2.5,0-4.8-0.4-7.2-1.2l0,0c-2.1-0.9-4-2.1-5.8-3.6l0,0c-1.7-1.6-3.1-3.4-4.3-5.4
				c-1-1.9-1.7-4-2.1-6.3l0,0c-0.4-2.2-0.4-4.6-0.1-6.8l0,0c0.3-2.4,1.1-4.5,2.1-6.6c1.1-2,2.6-3.8,4.3-5.4l0,0
				c0.9-0.8,1.9-1.6,2.9-2.1c0.9-0.6,1.9-1,2.8-1.5l0,0c2.4-0.8,4.7-1.2,7.2-1.2c-1.1-2.7-3.7-6.3-4.8-6.1l0,0
				c-1,0.2-2.1,3.8-2.4,6.7c-1.9-1.9-5.2-3.8-6.1-3.4l0,0c-0.9,0.6-0.4,4.4,0.4,7.2c-2.7-1.2-6.6-2.1-7.3-1.3l0,0
				c-0.7,0.8,1.1,4.5,2.9,6.8c-2.9-0.2-7.2,0.4-7.5,1.5l0,0c-0.3,0.9,2.7,3.6,5.2,5.2c-2.8,0.8-6.6,2.6-6.6,3.6s3.8,2.7,6.7,3.5
				c-2.6,1.6-5.5,4.6-5.3,5.5l0,0c0.3,0.9,4.5,1.3,7.4,1.1c-1.8,2.4-3.6,6.1-2.9,6.8l0,0c0.7,0.8,4.6-0.1,7.3-1.3
				c-0.9,2.8-1.2,6.7-0.4,7.3l0,0c0.9,0.4,4.3-1.6,6.4-3.6c0.2,2.9,1.3,6.6,2.4,6.8l0,0C58.3,176.4,60.8,172.8,62,170z"/>
			<path class="st3" d="M88,152.4v-4.7c0-0.6-0.3-1-0.9-1l-4.4-0.2l3.8-1.6c0.4-0.2,0.7-0.8,0.6-1.2l0,0l-1.6-4.4
				c-0.1-0.4-0.7-0.8-1.1-0.7l-4.2,1.1l3.3-3.1c0.3-0.3,0.3-1,0-1.3l0,0l-3-3.6c-0.3-0.4-0.9-0.6-1.3-0.2l-3.8,2.9l2.2-4.2
				c0.2-0.4,0.1-1-0.4-1.3l0,0l-3.9-2.5c-0.4-0.3-1.1-0.2-1.3,0.2l-2.5,3.6l0.3-4.5c0-0.6-0.3-1-0.9-1l-4.6-0.6
				c-0.6-0.1-1,0.2-1.1,0.8l-1.1,5.1c0,0,0,0,0,0.1c7.1,0.1,13.7,3.9,17.3,10c3.6,6.2,3.6,13.8,0,20s-10.1,10-17.3,10v0.1l0.9,5.1
				c0.1,0.6,0.6,0.9,1.1,0.8l4.7-0.6c0.6,0,0.9-0.4,0.9-1l-0.3-4.5l2.5,3.6c0.3,0.4,0.9,0.6,1.3,0.2l4-2.5c0.4-0.2,0.7-0.8,0.4-1.3
				l0,0l-2.2-4.2l3.8,2.9c0.4,0.3,1,0.2,1.3-0.2l3-3.5c0.3-0.3,0.3-1,0-1.3l0,0l-3.3-3.1l4.2,1.1c0.6,0.1,1-0.2,1.1-0.7l1.6-4.4
				c0.2-0.4,0-1-0.6-1.2l0,0l-3.6-1.5l4.2-0.2C87.6,153.4,88,152.9,88,152.4z"/>
			<path class="st2" d="M80.5,148.3c-0.9-10.2-9.9-17.7-20.1-16.8c-0.6,0-1.1,0.1-1.6,0.2c-1.3,0.2-2.6,0.6-3.9,1.1
				c-5.3,2.2-9.3,6.7-10.8,12.4c-1.7,6.4,0.1,13.2,4.8,18c0.6,0.6,1.2,1.2,2,1.7c1.2,0.9,2.6,1.7,4,2.4c1.2,0.6,2.6,0.9,3.9,1.1
				c10.1,1.8,19.8-4.9,21.6-15C80.6,151.6,80.7,150,80.5,148.3z M57.8,152.1c0.3,0.7,0.8,1.2,1.3,1.7c1,0.8,2.2,1.2,3.6,1.2
				c0.6,0,1.1-0.1,1.7-0.2c0.3-0.1,0.7-0.2,1-0.3L66,154l0,0l0,0c0.7-0.4,1.5-0.8,2.4-0.9c1.2,0,2.4,0.9,3.5,2.6l0,0
				c0.6,0.8,0.9,1.7,1,2.7c0,0.8-0.3,1.6-0.9,2.1c-0.4,0.4-0.9,0.8-1.3,1.1l-1,0.6c-0.8,0.4-1.7,0.8-2.6,1c-1.2,0.4-2.5,0.6-3.8,0.6
				c-1.2,0-2.5-0.1-3.7-0.4c-1.3-0.3-2.6-0.9-3.8-1.6c-1.2-0.8-2.5-1.7-3.5-2.7c-1.1-1.2-2-2.7-2.6-4.2c-0.7-1.8-1-3.6-1-5.5
				c0-1.8,0.3-3.7,1-5.4c0.6-1.5,1.5-2.9,2.6-4c1-1,2.2-1.9,3.5-2.7c2.2-1.3,4.8-2,7.4-2c1.2,0,2.5,0.2,3.7,0.6
				c1,0.2,1.9,0.7,2.8,1.1l0.8,0.4l0,0c0.4,0.2,0.8,0.4,1,0.7l0,0l0,0c0.9,0.7,1.3,1.7,1.5,2.7c0,1-0.3,1.9-1,2.7
				c-1.1,1.7-2.4,2.5-3.5,2.5c-0.9-0.1-1.8-0.4-2.5-1l0,0l0,0c-0.9-0.7-1.9-0.9-3-0.9c-1.3,0-2.6,0.4-3.6,1.2c-0.6,0.4-1,1-1.3,1.7
				C57.1,148.8,57.1,150.6,57.8,152.1L57.8,152.1z"/>
			<path class="st4" d="M63,136.8c1.1,0,2.2,0.2,3.3,0.4c0.9,0.2,1.7,0.6,2.6,1l0.8,0.4c0.4,0.2,0.8,0.4,1,0.6
				c0.6,0.3,0.9,1,0.9,1.7s-0.3,1.3-0.7,1.9c-0.9,1.2-1.7,1.9-2.5,1.9c-0.7-0.1-1.2-0.3-1.8-0.8c-1.1-0.8-2.5-1.2-3.8-1.1
				c-1.6,0-3.1,0.6-4.4,1.5c-0.8,0.6-1.3,1.3-1.7,2.1c-0.9,2-0.9,4.3,0,6.2c0.4,0.9,1,1.6,1.8,2.1c1.2,1,2.8,1.5,4.4,1.6
				c0.7,0,1.3-0.1,2-0.3c0.4-0.1,0.9-0.3,1.3-0.6l0.6-0.4c0.4-0.3,1-0.6,1.7-0.7c0.7,0,1.5,0.7,2.4,1.9c0.4,0.6,0.7,1.2,0.8,1.9
				c0,0.4-0.1,0.9-0.4,1.2s-0.7,0.7-1.1,0.9l-1.1,0.7c-0.8,0.3-1.6,0.7-2.4,0.9c-1.1,0.3-2.2,0.6-3.4,0.6c-1.1,0-2.2-0.1-3.3-0.4
				c-1.2-0.3-2.4-0.8-3.5-1.5s-2.2-1.5-3.1-2.5c-1-1.1-1.8-2.4-2.4-3.7c-0.7-1.6-0.9-3.3-0.9-4.9s0.3-3.4,0.9-4.8
				c0.6-1.3,1.2-2.6,2.2-3.6c1-0.9,2-1.7,3.3-2.4C58.3,137.5,60.6,136.9,63,136.8"/>
		</g>
	</g>
</g>
</svg>
