<!-- Generator: Adobe Illustrator 24.1.0, SVG Export Plug-In  -->
<svg version="1.1" xmlns="http://www.w3.org/2000/svg" xmlns:xlink="http://www.w3.org/1999/xlink" x="0px" y="0px" width="400px"
	 height="300px" viewBox="0 0 400 300" style="enable-background:new 0 0 400 300;" xml:space="preserve">
<style type="text/css">
	.st0{fill:none;}
	.st1{fill:#FFFFFF;}
	.st2{fill:#1032B9;}
	.st3{fill:#1F1E94;}
	.st4{fill:#00A99D;}
</style>
<defs>
</defs>
<g>
	<rect class="st0" width="400" height="300"/>
	<g>
		<path class="st1" d="M174,165.4c-1.2-0.9-2-2.5-2-4.5c0-0.7,0-1.3,0-2l1.8-23.9c0-0.5,0.5-0.9,0.9-0.9h4.5c0.7,0,0.9,0.5,0.9,1.2
			l-1.5,23c0,0.2,0,0.5,0,0.9c0,0.7,0.2,1.3,0.7,1.5c0.5,0.2,1.2,0.5,2,0.5h9.2c0.7,0,1.2,0.5,0.9,1.2l-0.2,3.8
			c0,0.5-0.5,0.9-0.9,0.9h-11.3C177,166.7,175.1,166.2,174,165.4z"/>
		<path class="st1" d="M197.5,143h4.5c0.7,0,0.9,0.5,0.9,1.2l-1.2,21.7c0,0.5-0.5,0.9-0.9,0.9h-4.7c-0.7,0-1.2-0.5-0.9-1.2l1.5-21.9
			C196.5,143.5,197,143,197.5,143z M197,139.2c-0.2-0.2-0.2-0.5-0.2-0.7l0.2-4.3c0-0.7,0.5-0.9,0.9-0.9h5c0.5,0,0.9,0.2,0.9,0.9
			l-0.2,4.3c0,0.7-0.5,0.9-0.9,0.9h-5C197.5,139.4,197.2,139.4,197,139.2z"/>
		<path class="st1" d="M209.7,143h3.8c0.5,0,0.7,0.2,0.9,0.7l0.2,0.7c0.2,0.7,0.9,0.9,1.3,0.5c2-1.3,4.5-2,7-2c2,0,3.4,0.5,4.5,1.5
			c1.2,0.9,1.8,2.3,1.8,3.8c0,1.2,0,2.7,0,5l-0.5,12.7c0,0.5-0.5,0.9-0.9,0.9h-4.5c-0.7,0-0.9-0.5-0.9-1.2l0.9-12.7c0-1.3,0-2,0-2
			c-0.2-1.5-1.2-2.5-3.2-2.5c-0.9,0-1.8,0.2-2.7,0.5c-0.7,0.2-1.3,0.7-2,1.2c-0.2,0.2-0.5,0.5-0.5,0.7l-1.2,14.9
			c0,0.5-0.5,0.9-0.9,0.9h-4.5c-0.7,0-0.9-0.5-0.9-1.2l1.5-21.9C208.7,143.5,209.2,143,209.7,143z"/>
		<path class="st1" d="M237.4,132.8h4.5c0.7,0,1.2,0.5,0.9,1.2l-1.2,16c0,0.7,0.7,1.2,1.3,0.9c3.2-0.9,5.4-3.4,6-7.2
			c0-0.5,0.5-0.7,0.9-0.7h4.5c0.7,0,1.2,0.7,0.9,1.2c-1.2,4.3-3,7.5-5.7,9.2c-0.5,0.2-0.7,0.9-0.2,1.3l6,10.7c0.5,0.7,0,1.3-0.9,1.3
			h-4.5c-0.5,0-0.7-0.2-0.9-0.5l-5.4-9.7c-0.2-0.5-0.7-0.7-1.2-0.5c-0.5,0-0.7,0.2-1.2,0.2s-0.9,0.5-0.9,0.9l-0.7,8.8
			c0,0.5-0.5,0.9-0.9,0.9h-5.7l2.3-32.9C236.6,133.3,237,132.8,237.4,132.8z"/>
		<path class="st1" d="M262.7,143h4.5c0.7,0,0.9,0.5,0.9,1.2l-1.5,21.9c0,0.5-0.5,0.9-0.9,0.9H261c-0.7,0-1.2-0.5-0.9-1.2l1.5-21.9
			C261.6,143.5,262,143,262.7,143z M262,139.2c-0.2-0.2-0.2-0.5-0.2-0.7l0.2-4.3c0-0.7,0.5-0.9,0.9-0.9h5c0.5,0,0.9,0.2,0.9,0.9
			l-0.2,4.3c0,0.7-0.5,0.9-0.9,0.9h-5C262.5,139.4,262.3,139.4,262,139.2z"/>
		<path class="st1" d="M274.5,164.9c-1.3-1.3-2-3.4-2.3-6c-0.2-1.3,0-3,0-5c0.2-3.8,1.3-6.5,3.2-8.4c1.8-1.8,4.7-2.7,8.4-2.7
			c2,0,3.8,0.2,5.7,0.7c1.5,0.5,3,1.2,4,1.8c0.2,0.2,0.5,0.5,0.5,0.9l-1.3,19.9c0,0.5-0.5,0.9-0.9,0.9h-4.1c-0.5,0-0.9-0.2-0.9-0.7
			V166c-0.2-0.7-0.9-0.9-1.3-0.7c-0.5,0.2-1.2,0.7-1.8,0.9c-1.3,0.5-2.7,0.9-3.8,0.9C277.4,167.2,275.8,166.5,274.5,164.9z
			 M284.4,161.3c0.5-0.2,1.2-0.5,1.8-0.9c0.2-0.2,0.5-0.5,0.5-0.7l0.7-11c-0.2-0.2-0.7-0.5-1.3-0.5c-0.7-0.2-1.3-0.2-2-0.2
			c-1.8,0-3,0.5-3.8,1.5c-0.9,1.2-1.3,2.7-1.3,4.7c0,1.5-0.2,2.5,0,3.4c0,1.3,0.5,2.3,1.2,3c0.7,0.7,1.3,1.2,2.5,1.2
			C282.8,161.7,283.7,161.7,284.4,161.3z"/>
		<path class="st1" d="M300.6,143h4c0.5,0,0.9,0.5,0.9,0.9v0.5c0.2,0.7,1.2,1.2,1.5,0.5c0.5-0.5,0.9-0.9,1.5-1.2
			c0.9-0.7,2-0.9,3.4-0.9c0.7,0,1.2,0,1.5,0c0.5,0,0.9,0.5,0.9,1.2l-0.2,4.7c0,0.5-0.5,0.9-1.2,0.9c-0.7,0-1.3,0-1.8,0
			c-1.2,0-2.3,0.2-3.4,0.5c-0.9,0.2-1.5,0.7-2.3,1.2c-0.2,0.2-0.5,0.5-0.5,0.7l-0.9,14c0,0.5-0.5,0.9-0.9,0.9h-4.7
			c-0.7,0-1.2-0.5-0.9-1.2l1.5-21.9C299.7,143.5,300.2,143,300.6,143z"/>
		<path class="st2" d="M112.6,155.7l-15.2-1.2c-6-0.5-10.7-5.7-10.2-11.7L88,132c0.5-5.4,5.2-9.5,10.7-9l2,0.2
			c7.9,0.5,13.7,7.5,13.1,15.2L112.6,155.7z"/>
		<path class="st3" d="M112,164.9l0.7-9.2l-15.2-1.2c-6-0.5-10.7-5.7-10.2-11.7l-0.5,5.4c-1.2,14.4,9.7,26.9,24.2,28l11.3,0.9
			C116.2,176.6,111.5,171.2,112,164.9z"/>
		<path class="st4" d="M122.7,177.1h-0.2c-6-0.5-10.8-5.9-10.4-12l0.7-9.5l13.7,0.9c5,0.5,8.8,4.7,8.4,9.7v0.2
			C134.2,172.8,128.9,177.6,122.7,177.1z"/>
	</g>
</g>
</svg>
