<!-- Generator: Adobe Illustrator 24.1.0, SVG Export Plug-In  -->
<svg version="1.1" xmlns="http://www.w3.org/2000/svg" xmlns:xlink="http://www.w3.org/1999/xlink" x="0px" y="0px" width="400px"
	 height="300px" viewBox="0 0 400 300" style="enable-background:new 0 0 400 300;" xml:space="preserve">
<style type="text/css">
	.st0{fill:none;}
	.st1{fill:#FFFFFF;}
</style>
<defs>
</defs>
<g>
	<rect class="st0" width="400" height="300"/>
	<g>
		<path class="st1" d="M173.8,165.4c-1.2-0.9-2-2.5-2-4.5c0-0.7,0-1.3,0-2l1.8-23.9c0-0.5,0.5-0.9,0.9-0.9h4.5
			c0.7,0,0.9,0.5,0.9,1.2l-1.5,23c0,0.2,0,0.5,0,0.9c0,0.7,0.2,1.3,0.7,1.5c0.5,0.2,1.2,0.5,2,0.5h9.2c0.7,0,1.2,0.5,0.9,1.2
			l-0.2,3.8c0,0.5-0.5,0.9-0.9,0.9h-11.3C176.7,166.7,174.9,166.2,173.8,165.4z"/>
		<path class="st1" d="M197.3,143h4.5c0.7,0,0.9,0.5,0.9,1.2l-1.2,21.7c0,0.5-0.5,0.9-0.9,0.9h-4.7c-0.7,0-1.2-0.5-0.9-1.2l1.5-21.9
			C196.3,143.5,196.8,143,197.3,143z M196.8,139.2c-0.2-0.2-0.2-0.5-0.2-0.7l0.2-4.3c0-0.7,0.5-0.9,0.9-0.9h5c0.5,0,0.9,0.2,0.9,0.9
			l-0.2,4.3c0,0.7-0.5,0.9-0.9,0.9h-5C197.3,139.4,197,139.4,196.8,139.2z"/>
		<path class="st1" d="M209.5,143h3.8c0.5,0,0.7,0.2,0.9,0.7l0.2,0.7c0.2,0.7,0.9,0.9,1.3,0.5c2-1.3,4.5-2,7-2c2,0,3.4,0.5,4.5,1.5
			c1.2,0.9,1.8,2.3,1.8,3.8c0,1.2,0,2.7,0,5l-0.5,12.7c0,0.5-0.5,0.9-0.9,0.9h-4.5c-0.7,0-0.9-0.5-0.9-1.2l0.9-12.7c0-1.3,0-2,0-2
			c-0.2-1.5-1.2-2.5-3.2-2.5c-0.9,0-1.8,0.2-2.7,0.5c-0.7,0.2-1.3,0.7-2,1.2c-0.2,0.2-0.5,0.5-0.5,0.7l-1.2,14.9
			c0,0.5-0.5,0.9-0.9,0.9h-4.5c-0.7,0-0.9-0.5-0.9-1.2l1.5-21.9C208.5,143.5,209,143,209.5,143z"/>
		<path class="st1" d="M237.2,132.8h4.5c0.7,0,1.2,0.5,0.9,1.2l-1.2,16c0,0.7,0.7,1.2,1.3,0.9c3.2-0.9,5.4-3.4,6-7.2
			c0-0.5,0.5-0.7,0.9-0.7h4.5c0.7,0,1.2,0.7,0.9,1.2c-1.2,4.3-3,7.5-5.7,9.2c-0.5,0.2-0.7,0.9-0.2,1.3l6,10.7c0.5,0.7,0,1.3-0.9,1.3
			h-4.5c-0.5,0-0.7-0.2-0.9-0.5l-5.4-9.7c-0.2-0.5-0.7-0.7-1.2-0.5c-0.5,0-0.7,0.2-1.2,0.2c-0.5,0-0.9,0.5-0.9,0.9l-0.7,8.8
			c0,0.5-0.5,0.9-0.9,0.9h-5.7l2.3-32.9C236.3,133.3,236.7,132.8,237.2,132.8z"/>
		<path class="st1" d="M262.5,143h4.5c0.7,0,0.9,0.5,0.9,1.2l-1.5,21.9c0,0.5-0.5,0.9-0.9,0.9h-4.7c-0.7,0-1.2-0.5-0.9-1.2l1.5-21.9
			C261.4,143.5,261.8,143,262.5,143z M261.8,139.2c-0.2-0.2-0.2-0.5-0.2-0.7l0.2-4.3c0-0.7,0.5-0.9,0.9-0.9h5c0.5,0,0.9,0.2,0.9,0.9
			l-0.2,4.3c0,0.7-0.5,0.9-0.9,0.9h-5C262.3,139.4,262.1,139.4,261.8,139.2z"/>
		<path class="st1" d="M274.3,164.9c-1.3-1.3-2-3.4-2.3-6c-0.2-1.3,0-3,0-5c0.2-3.8,1.3-6.5,3.2-8.4c1.8-1.8,4.7-2.7,8.4-2.7
			c2,0,3.8,0.2,5.7,0.7c1.5,0.5,3,1.2,4,1.8c0.2,0.2,0.5,0.5,0.5,0.9l-1.3,19.9c0,0.5-0.5,0.9-0.9,0.9h-4.1c-0.5,0-0.9-0.2-0.9-0.7
			V166c-0.2-0.7-0.9-0.9-1.3-0.7c-0.5,0.2-1.2,0.7-1.8,0.9c-1.3,0.5-2.7,0.9-3.8,0.9C277.1,167.2,275.6,166.5,274.3,164.9z
			 M284.2,161.3c0.5-0.2,1.2-0.5,1.8-0.9c0.2-0.2,0.5-0.5,0.5-0.7l0.7-11c-0.2-0.2-0.7-0.5-1.3-0.5c-0.7-0.2-1.3-0.2-2-0.2
			c-1.8,0-3,0.5-3.8,1.5c-0.9,1.2-1.3,2.7-1.3,4.7c0,1.5-0.2,2.5,0,3.4c0,1.3,0.5,2.3,1.2,3c0.7,0.7,1.3,1.2,2.5,1.2
			C282.6,161.7,283.5,161.7,284.2,161.3z"/>
		<path class="st1" d="M300.4,143h4c0.5,0,0.9,0.5,0.9,0.9v0.5c0.2,0.7,1.2,1.2,1.5,0.5c0.5-0.5,0.9-0.9,1.5-1.2
			c0.9-0.7,2-0.9,3.4-0.9c0.7,0,1.2,0,1.5,0c0.5,0,0.9,0.5,0.9,1.2l-0.2,4.7c0,0.5-0.5,0.9-1.2,0.9s-1.3,0-1.8,0
			c-1.2,0-2.3,0.2-3.4,0.5c-0.9,0.2-1.5,0.7-2.3,1.2c-0.2,0.2-0.5,0.5-0.5,0.7l-0.9,14c0,0.5-0.5,0.9-0.9,0.9h-4.7
			c-0.7,0-1.2-0.5-0.9-1.2l1.5-21.9C299.5,143.5,300,143,300.4,143z"/>
		<path class="st1" d="M134.4,158c-2-2.3-4.8-3.7-7.9-4l-11.5-0.7l0.9-14.8c0.4-4.3-1.1-8.8-3.9-12.1c-2.9-3.4-6.9-5.4-11.3-5.7
			l-2-0.2C91.9,120,86,125,85.3,131.8l-0.7,10.8l-0.5,5.4c-0.6,7.6,1.8,15,6.8,20.7c5,5.8,11.9,9.3,19.6,9.9l11.3,0.9
			c0.1,0,0.1,0,0.2,0c0,0,0,0,0.1,0c0,0,0.1,0,0.1,0h0.1c0.3,0,0.6,0,1,0c7,0,12.9-5.5,13.7-12.9c0-0.1,0-0.2,0-0.2v-0.1
			C137.3,163.2,136.4,160.3,134.4,158z M90.1,132.2c0.3-3.9,3.6-6.9,7.4-6.9c0.2,0,0.4,0,0.6,0l2.1,0.2c3.1,0.2,6,1.6,8,4
			c2,2.4,3.1,5.5,2.8,8.6l-0.9,14.9l-12.7-1c-0.3,0-0.6-0.1-0.9-0.1c0,0-0.1,0-0.1,0c-4.3-0.8-7.3-4.7-7-9L90.1,132.2z M111,173.8
			c-6.4-0.5-12.2-3.4-16.3-8.2c-3-3.5-4.9-7.6-5.5-12c0.1,0.1,0.3,0.2,0.4,0.3c0.1,0.1,0.2,0.2,0.3,0.3c0.3,0.2,0.5,0.4,0.8,0.6
			c0.1,0,0.1,0.1,0.2,0.1c0.3,0.2,0.7,0.4,1,0.6c0.1,0.1,0.2,0.1,0.3,0.2c0.3,0.1,0.5,0.2,0.8,0.4c0.1,0.1,0.3,0.1,0.4,0.2
			c0.2,0.1,0.5,0.2,0.7,0.3c0.1,0,0.3,0.1,0.4,0.1c0.3,0.1,0.5,0.1,0.8,0.2c0.1,0,0.3,0.1,0.4,0.1c0.4,0.1,0.8,0.1,1.3,0.2l12.8,1
			l-0.5,6.8c-0.3,3.4,0.7,6.6,2.6,9.2L111,173.8z M132.3,165.9c0,0.1,0,0.2,0,0.2v0.1c-0.6,5.1-4.8,8.8-9.6,8.5c-0.1,0-0.1,0-0.2,0
			h-0.1c-4.8-0.4-8.4-4.7-8.1-9.4l0.5-7.1l11.3,0.7C129.9,159.2,132.6,162.4,132.3,165.9z"/>
	</g>
</g>
</svg>
