<svg version="1.1" xmlns="http://www.w3.org/2000/svg" viewBox="0 0 100 75">
<style type="text/css">
	.st0{fill:none;}
	.st1{fill:#05052D;}
	.st2{opacity:0.7;fill:#1032B9;enable-background:new    ;}
	.st3{fill:#1F1E94;}
	.st4{fill:#00A99D;enable-background:new    ;}
</style>
<defs>
</defs>
<rect class="st0" width="100" height="75"/>
<g>
	<path class="st1" d="M42.8,41.6c-0.3-0.2-0.5-0.7-0.5-1.2c0-0.2,0-0.4,0-0.5l0.5-6.4c0-0.1,0.1-0.2,0.2-0.2h1.2
		c0.2,0,0.2,0.1,0.2,0.3l-0.4,6.2c0,0.1,0,0.1,0,0.2c0,0.2,0.1,0.4,0.2,0.4c0.1,0.1,0.3,0.1,0.5,0.1h2.5c0.2,0,0.3,0.1,0.2,0.3
		l-0.1,1c0,0.1-0.1,0.2-0.2,0.2h-3C43.6,42,43.1,41.9,42.8,41.6z"/>
	<path class="st1" d="M49.1,35.6h1.2c0.2,0,0.2,0.1,0.2,0.3l-0.3,5.8c0,0.1-0.1,0.2-0.2,0.2h-1.3c-0.2,0-0.3-0.1-0.2-0.3l0.4-5.9
		C48.9,35.7,49,35.6,49.1,35.6z M49,34.6C49,34.5,49,34.5,49,34.4l0.1-1.1c0-0.2,0.1-0.2,0.2-0.2h1.3c0.1,0,0.2,0.1,0.2,0.2
		l-0.1,1.1c0,0.2-0.1,0.2-0.2,0.2h-1.3C49.1,34.7,49.1,34.7,49,34.6z"/>
	<path class="st1" d="M52.4,35.6h1c0.1,0,0.2,0.1,0.2,0.2l0.1,0.2c0.1,0.2,0.2,0.2,0.4,0.1c0.5-0.4,1.2-0.5,1.9-0.5
		c0.5,0,0.9,0.1,1.2,0.4c0.3,0.2,0.5,0.6,0.5,1c0,0.3,0,0.7,0,1.3l-0.1,3.4c0,0.1-0.1,0.2-0.2,0.2h-1.2c-0.2,0-0.2-0.1-0.2-0.3
		l0.2-3.4c0-0.4,0-0.5,0-0.5c-0.1-0.4-0.3-0.7-0.8-0.7c-0.2,0-0.5,0.1-0.7,0.1c-0.2,0.1-0.4,0.2-0.5,0.3c-0.1,0.1-0.1,0.1-0.1,0.2
		l-0.3,4c0,0.1-0.1,0.2-0.2,0.2h-1.2c-0.2,0-0.2-0.1-0.2-0.3l0.4-5.9C52.2,35.7,52.3,35.6,52.4,35.6z"/>
	<path class="st1" d="M59.8,32.9h1.2c0.2,0,0.3,0.1,0.2,0.3L61,37.5c0,0.2,0.2,0.3,0.4,0.2c0.8-0.2,1.5-0.9,1.6-1.9
		c0-0.1,0.1-0.2,0.2-0.2h1.2c0.2,0,0.3,0.2,0.2,0.3c-0.3,1.1-0.8,2-1.5,2.5c-0.1,0.1-0.2,0.2-0.1,0.4l1.6,2.8c0.1,0.2,0,0.4-0.2,0.4
		h-1.2c-0.1,0-0.2-0.1-0.2-0.1l-1.5-2.6c-0.1-0.1-0.2-0.2-0.3-0.1c-0.1,0-0.2,0.1-0.3,0.1c-0.1,0-0.2,0.1-0.2,0.2l-0.2,2.4
		c0,0.1-0.1,0.2-0.2,0.2h-1.5l0.6-8.8C59.6,33,59.7,32.9,59.8,32.9z"/>
	<path class="st1" d="M66.6,35.6h1.2c0.2,0,0.2,0.1,0.2,0.3l-0.4,5.9c0,0.1-0.1,0.2-0.2,0.2h-1.3c-0.2,0-0.3-0.1-0.2-0.3l0.4-5.9
		C66.3,35.7,66.4,35.6,66.6,35.6z M66.4,34.6c-0.1-0.1-0.1-0.1-0.1-0.2l0.1-1.1c0-0.2,0.1-0.2,0.2-0.2H68c0.1,0,0.2,0.1,0.2,0.2
		l-0.1,1.1c0,0.2-0.1,0.2-0.2,0.2h-1.3C66.6,34.7,66.5,34.7,66.4,34.6z"/>
	<path class="st1" d="M69.8,41.5c-0.4-0.4-0.5-0.9-0.6-1.6c-0.1-0.4,0-0.8,0-1.3c0.1-1,0.4-1.8,0.8-2.2c0.5-0.5,1.3-0.7,2.2-0.7
		c0.5,0,1,0.1,1.5,0.2c0.4,0.1,0.8,0.3,1.1,0.5c0.1,0.1,0.1,0.1,0.1,0.2l-0.4,5.3c0,0.1-0.1,0.2-0.2,0.2h-1.1C73.2,42,73,42,73,41.9
		v-0.1c-0.1-0.2-0.2-0.2-0.4-0.2c-0.1,0.1-0.3,0.2-0.5,0.2c-0.4,0.1-0.7,0.2-1,0.2C70.6,42.1,70.1,41.9,69.8,41.5z M72.4,40.5
		c0.1-0.1,0.3-0.1,0.5-0.2c0.1-0.1,0.1-0.1,0.1-0.2l0.2-3C73.2,37.1,73,37,72.8,37C72.7,37,72.5,37,72.3,37c-0.5,0-0.8,0.1-1,0.4
		c-0.2,0.3-0.4,0.7-0.4,1.3c0,0.4-0.1,0.7,0,0.9c0,0.4,0.1,0.6,0.3,0.8c0.2,0.2,0.4,0.3,0.7,0.3C72,40.6,72.2,40.6,72.4,40.5z"/>
	<path class="st1" d="M76.8,35.6h1.1c0.1,0,0.2,0.1,0.2,0.2V36c0.1,0.2,0.3,0.3,0.4,0.1c0.1-0.1,0.2-0.2,0.4-0.3
		c0.2-0.2,0.5-0.2,0.9-0.2c0.2,0,0.3,0,0.4,0c0.1,0,0.2,0.1,0.2,0.3l-0.1,1.3c0,0.1-0.1,0.2-0.3,0.2c-0.2,0-0.4,0-0.5,0
		c-0.3,0-0.6,0.1-0.9,0.1c-0.2,0.1-0.4,0.2-0.6,0.3c-0.1,0.1-0.1,0.1-0.1,0.2l-0.2,3.8c0,0.1-0.1,0.2-0.2,0.2h-1.3
		c-0.2,0-0.3-0.1-0.2-0.3l0.4-5.9C76.5,35.7,76.7,35.6,76.8,35.6z"/>
	<path class="st2" d="M26.4,39l-4.1-0.3c-1.6-0.1-2.8-1.5-2.7-3.1l0.2-2.9c0.1-1.5,1.4-2.5,2.8-2.4l0.5,0.1c2.1,0.1,3.7,2,3.5,4.1
		L26.4,39z"/>
	<path class="st3" d="M26.2,41.5l0.2-2.5l-4.1-0.3c-1.6-0.1-2.8-1.5-2.7-3.1L19.5,37c-0.3,3.9,2.6,7.2,6.5,7.5l3,0.2
		C27.4,44.6,26.1,43.2,26.2,41.5z"/>
	<path class="st4" d="M29.1,44.8L29.1,44.8c-1.7-0.1-3-1.6-2.8-3.2l0.2-2.5l3.7,0.2c1.3,0.1,2.4,1.3,2.2,2.6v0.1
		C32.2,43.6,30.7,44.9,29.1,44.8z"/>
</g>
</svg>
