<!-- Generator: Adobe Illustrator 24.1.0, SVG Export Plug-In  -->
<svg version="1.1" xmlns="http://www.w3.org/2000/svg" xmlns:xlink="http://www.w3.org/1999/xlink" x="0px" y="0px" width="305.3px"
	 height="72.7px" viewBox="0 0 305.3 72.7" style="enable-background:new 0 0 305.3 72.7;" xml:space="preserve">
<style type="text/css">
	.st0{fill:#FFFFFF;}
	.st1{opacity:0.7;fill:#1032B9;enable-background:new    ;}
	.st2{fill:#1F1E94;}
	.st3{fill:#00A99D;enable-background:new    ;}
</style>
<defs>
</defs>
<g>
	<path class="st0" d="M116.9,56.9c-1.5-1.2-2.7-3.3-2.7-6c0-0.9,0-1.8,0-2.7l2.4-32.1c0-0.6,0.6-1.2,1.2-1.2h6.1
		c0.9,0,1.2,0.6,1.2,1.5l-2.1,30.9c0,0.3,0,0.6,0,1.2c0,0.9,0.3,1.8,0.9,2.1s1.5,0.6,2.7,0.6H139c0.9,0,1.5,0.6,1.2,1.5l-0.3,5.1
		c0,0.6-0.6,1.2-1.2,1.2h-15.1C120.8,58.7,118.4,58.1,116.9,56.9z"/>
	<path class="st0" d="M148.3,27h6c0.9,0,1.2,0.6,1.2,1.5l-1.5,29c0,0.6-0.6,1.2-1.2,1.2h-6.4c-0.9,0-1.5-0.6-1.2-1.5l2.1-29.3
		C147.1,27.6,147.7,27,148.3,27z M147.7,21.8c-0.3-0.3-0.3-0.6-0.3-0.9l0.3-5.7c0-0.9,0.6-1.2,1.2-1.2h6.7c0.6,0,1.2,0.3,1.2,1.2
		l-0.3,5.7c0,0.9-0.6,1.2-1.2,1.2h-6.7C148.3,22.1,148,22.1,147.7,21.8z"/>
	<path class="st0" d="M164.7,27h5.1c0.6,0,0.9,0.3,1.2,0.9l0.3,0.9c0.3,0.9,1.2,1.2,1.8,0.6c2.7-1.8,6.1-2.7,9.4-2.7
		c2.7,0,4.5,0.6,6,2.1c1.5,1.2,2.4,3,2.4,5.1c0,1.5,0,3.6,0,6.7l-0.6,16.9c0,0.6-0.6,1.2-1.2,1.2h-6.1c-0.9,0-1.2-0.6-1.2-1.5
		l1.2-16.9c0-1.8,0-2.7,0-2.7c-0.3-2.1-1.5-3.3-4.2-3.3c-1.2,0-2.4,0.3-3.6,0.6c-0.9,0.3-1.8,0.9-2.7,1.5c-0.3,0.3-0.6,0.6-0.6,0.9
		l-1.5,20c0,0.6-0.6,1.2-1.2,1.2h-6.1c-0.9,0-1.2-0.6-1.2-1.5l2.1-29.3C163.5,27.6,164.1,27,164.7,27z"/>
	<path class="st0" d="M201.9,13.4h6.1c0.9,0,1.5,0.6,1.2,1.5l-1.5,21.5c0,0.9,0.9,1.5,1.8,1.2c4.2-1.2,7.3-4.5,8.2-9.7
		c0-0.6,0.6-0.9,1.2-0.9h6.1c0.9,0,1.5,0.9,1.2,1.5c-1.5,5.7-3.9,10-7.6,12.4c-0.6,0.3-0.9,1.2-0.3,1.8l8.2,14.2
		c0.6,0.9,0,1.8-1.2,1.8h-6c-0.6,0-0.9-0.3-1.2-0.6l-7.3-13c-0.3-0.6-0.9-0.9-1.5-0.6c-0.6,0-0.9,0.3-1.5,0.3
		c-0.6,0-1.2,0.6-1.2,1.2l-0.9,11.8c0,0.6-0.6,1.2-1.2,1.2h-7.6l3-44.2C200.7,14,201.3,13.4,201.9,13.4z"/>
	<path class="st0" d="M235.8,27h6.1c0.9,0,1.2,0.6,1.2,1.5l-2.1,29.3c0,0.6-0.6,1.2-1.2,1.2h-6.4c-0.9,0-1.5-0.6-1.2-1.5l2.1-29.3
		C234.2,27.6,234.8,27,235.8,27z M234.8,21.8c-0.3-0.3-0.3-0.6-0.3-0.9l0.3-5.7c0-0.9,0.6-1.2,1.2-1.2h6.7c0.6,0,1.2,0.3,1.2,1.2
		l-0.3,5.7c0,0.9-0.6,1.2-1.2,1.2h-6.7C235.5,22.1,235.2,22.1,234.8,21.8z"/>
	<path class="st0" d="M251.5,56.3c-1.8-1.8-2.7-4.5-3-8.2c-0.3-1.8,0-3.9,0-6.7c0.3-5.1,1.8-8.8,4.2-11.2c2.4-2.4,6.4-3.6,11.2-3.6
		c2.7,0,5.1,0.3,7.6,0.9c2.1,0.6,3.9,1.5,5.4,2.4c0.3,0.3,0.6,0.6,0.6,1.2l-1.8,26.6c0,0.6-0.6,1.2-1.2,1.2H269
		c-0.6,0-1.2-0.3-1.2-0.9v-0.3c-0.3-0.9-1.2-1.2-1.8-0.9c-0.6,0.3-1.5,0.9-2.4,1.2c-1.8,0.6-3.6,1.2-5.1,1.2
		C255.4,59.3,253.3,58.4,251.5,56.3z M264.8,51.5c0.6-0.3,1.5-0.6,2.4-1.2c0.3-0.3,0.6-0.6,0.6-0.9l0.9-14.8
		c-0.3-0.3-0.9-0.6-1.8-0.6c-0.9-0.3-1.8-0.3-2.7-0.3c-2.4,0-3.9,0.6-5.1,2.1c-1.2,1.5-1.8,3.6-1.8,6.4c0,2.1-0.3,3.3,0,4.5
		c0,1.8,0.6,3,1.5,3.9c0.9,0.9,1.8,1.5,3.3,1.5C262.7,52.1,263.9,52.1,264.8,51.5z"/>
	<path class="st0" d="M286.6,27h5.4c0.6,0,1.2,0.6,1.2,1.2v0.6c0.3,0.9,1.5,1.5,2.1,0.6c0.6-0.6,1.2-1.2,2.1-1.5
		c1.2-0.9,2.7-1.2,4.5-1.2c0.9,0,1.5,0,2.1,0s1.2,0.6,1.2,1.5l-0.3,6.4c0,0.6-0.6,1.2-1.5,1.2s-1.8,0-2.4,0c-1.5,0-3,0.3-4.5,0.6
		c-1.2,0.3-2.1,0.9-3,1.5c-0.3,0.3-0.6,0.6-0.6,0.9l-1.2,18.8c0,0.6-0.6,1.2-1.2,1.2h-6.4c-0.9,0-1.5-0.6-1.2-1.5l2.1-29.3
		C285.4,27.6,286,27,286.6,27z"/>
	<path class="st1" d="M34.6,43.9l-20.3-1.5C6.2,41.8,0.1,34.8,0.7,26.7l0.9-14.5C2.2,4.9,8.6-0.6,15.8,0l2.7,0.3
		C29.1,1,37,10.3,36.1,20.6L34.6,43.9z"/>
	<path class="st2" d="M33.7,56.3l0.9-12.4l-20.3-1.5C6.2,41.8,0.1,34.8,0.7,26.7l-0.6,7.3c-1.5,19.4,13,36,32.4,37.5l15.1,1.2
		C39.4,72,33.1,64.8,33.7,56.3z"/>
	<path class="st3" d="M48.2,72.6h-0.3c-8.2-0.6-14.5-7.9-13.9-16l0.9-12.7l18.5,1.2c6.7,0.6,11.8,6.4,11.2,13v0.3
		C63.6,66.9,56.4,73.3,48.2,72.6z"/>
</g>
</svg>
