<?xml version="1.0" encoding="utf-8"?>
<!-- Generator: Adobe Illustrator 24.1.0, SVG Export Plug-In . SVG Version: 6.00 Build 0)  -->
<svg version="1.1" id="Layer_1" xmlns="http://www.w3.org/2000/svg" xmlns:xlink="http://www.w3.org/1999/xlink" x="0px" y="0px"
	 viewBox="0 0 400 300" style="enable-background:new 0 0 400 300;" xml:space="preserve">
<style type="text/css">
	.st0{fill:none;}
	.st1{fill:#FFFFFF;}
	.st2{fill:#1032B9;}
	.st3{fill:#1F1E94;}
	.st4{fill:#00A99D;}
</style>
<g>
	<rect class="st0" width="400" height="300"/>
	<g>
		<path class="st1" d="M172.7,166c-1.2-0.9-2.1-2.6-2.1-4.7c0-0.7,0-1.4,0-2.1l1.9-24.9c0-0.5,0.5-0.9,0.9-0.9h4.7
			c0.7,0,0.9,0.5,0.9,1.2l-1.6,24c0,0.2,0,0.5,0,0.9c0,0.7,0.2,1.4,0.7,1.6c0.5,0.2,1.2,0.5,2.1,0.5h9.6c0.7,0,1.2,0.5,0.9,1.2
			l-0.2,4c0,0.5-0.5,0.9-0.9,0.9h-11.8C175.8,167.4,173.9,166.9,172.7,166z"/>
		<path class="st1" d="M197.2,142.7h4.7c0.7,0,0.9,0.5,0.9,1.2l-1.2,22.6c0,0.5-0.5,0.9-0.9,0.9h-4.9c-0.7,0-1.2-0.5-0.9-1.2
			l1.6-22.8C196.2,143.2,196.7,142.7,197.2,142.7z M196.7,138.7c-0.2-0.2-0.2-0.5-0.2-0.7l0.2-4.5c0-0.7,0.5-0.9,0.9-0.9h5.2
			c0.5,0,0.9,0.2,0.9,0.9l-0.2,4.5c0,0.7-0.5,0.9-0.9,0.9h-5.2C197.2,139,196.9,139,196.7,138.7z"/>
		<path class="st1" d="M209.9,142.7h4c0.5,0,0.7,0.2,0.9,0.7l0.2,0.7c0.2,0.7,0.9,0.9,1.4,0.5c2.1-1.4,4.7-2.1,7.3-2.1
			c2.1,0,3.5,0.5,4.7,1.6c1.2,0.9,1.9,2.4,1.9,4c0,1.2,0,2.8,0,5.2l-0.5,13.2c0,0.5-0.5,0.9-0.9,0.9h-4.7c-0.7,0-0.9-0.5-0.9-1.2
			l0.9-13.2c0-1.4,0-2.1,0-2.1c-0.2-1.6-1.2-2.6-3.3-2.6c-0.9,0-1.9,0.2-2.8,0.5c-0.7,0.2-1.4,0.7-2.1,1.2c-0.2,0.2-0.5,0.5-0.5,0.7
			l-1.2,15.5c0,0.5-0.5,0.9-0.9,0.9h-4.7c-0.7,0-0.9-0.5-0.9-1.2l1.6-22.8C208.9,143.2,209.4,142.7,209.9,142.7z"/>
		<path class="st1" d="M238.8,132.1h4.7c0.7,0,1.2,0.5,0.9,1.2l-1.2,16.7c0,0.7,0.7,1.2,1.4,0.9c3.3-0.9,5.6-3.5,6.3-7.5
			c0-0.5,0.5-0.7,0.9-0.7h4.7c0.7,0,1.2,0.7,0.9,1.2c-1.2,4.5-3.1,7.8-5.9,9.6c-0.5,0.2-0.7,0.9-0.2,1.4l6.3,11.1
			c0.5,0.7,0,1.4-0.9,1.4H252c-0.5,0-0.7-0.2-0.9-0.5l-5.6-10.1c-0.2-0.5-0.7-0.7-1.2-0.5c-0.5,0-0.7,0.2-1.2,0.2s-0.9,0.5-0.9,0.9
			l-0.7,9.2c0,0.5-0.5,0.9-0.9,0.9h-5.9l2.4-34.3C237.9,132.6,238.3,132.1,238.8,132.1z"/>
		<path class="st1" d="M265.1,142.7h4.7c0.7,0,0.9,0.5,0.9,1.2l-1.6,22.8c0,0.5-0.5,0.9-0.9,0.9h-4.9c-0.7,0-1.2-0.5-0.9-1.2
			l1.6-22.8C264,143.2,264.4,142.7,265.1,142.7z M264.4,138.7c-0.2-0.2-0.2-0.5-0.2-0.7l0.2-4.5c0-0.7,0.5-0.9,0.9-0.9h5.2
			c0.5,0,0.9,0.2,0.9,0.9l-0.2,4.5c0,0.7-0.5,0.9-0.9,0.9h-5.2C264.9,139,264.7,139,264.4,138.7z"/>
		<path class="st1" d="M277.4,165.5c-1.4-1.4-2.1-3.5-2.4-6.3c-0.2-1.4,0-3.1,0-5.2c0.2-4,1.4-6.8,3.3-8.7s4.9-2.8,8.7-2.8
			c2.1,0,4,0.2,5.9,0.7c1.6,0.5,3.1,1.2,4.2,1.9c0.2,0.2,0.5,0.5,0.5,0.9l-1.4,20.7c0,0.5-0.5,0.9-0.9,0.9H291
			c-0.5,0-0.9-0.2-0.9-0.7v-0.2c-0.2-0.7-0.9-0.9-1.4-0.7s-1.2,0.7-1.9,0.9c-1.4,0.5-2.8,0.9-4,0.9
			C280.4,167.9,278.8,167.2,277.4,165.5z M287.7,161.8c0.5-0.2,1.2-0.5,1.9-0.9c0.2-0.2,0.5-0.5,0.5-0.7l0.7-11.5
			c-0.2-0.2-0.7-0.5-1.4-0.5c-0.7-0.2-1.4-0.2-2.1-0.2c-1.9,0-3.1,0.5-4,1.6c-0.9,1.2-1.4,2.8-1.4,4.9c0,1.6-0.2,2.6,0,3.5
			c0,1.4,0.5,2.4,1.2,3.1s1.4,1.2,2.6,1.2C286.1,162.2,287,162.2,287.7,161.8z"/>
		<path class="st1" d="M304.6,142.7h4.2c0.5,0,0.9,0.5,0.9,0.9v0.5c0.2,0.7,1.2,1.2,1.6,0.5c0.5-0.5,0.9-0.9,1.6-1.2
			c0.9-0.7,2.1-0.9,3.5-0.9c0.7,0,1.2,0,1.6,0c0.5,0,0.9,0.5,0.9,1.2l-0.2,4.9c0,0.5-0.5,0.9-1.2,0.9s-1.4,0-1.9,0
			c-1.2,0-2.4,0.2-3.5,0.5c-0.9,0.2-1.6,0.7-2.4,1.2c-0.2,0.2-0.5,0.5-0.5,0.7l-0.9,14.6c0,0.5-0.5,0.9-0.9,0.9h-4.9
			c-0.7,0-1.2-0.5-0.9-1.2l1.6-22.8C303.7,143.2,304.2,142.7,304.6,142.7z"/>
		<path class="st2" d="M108.8,155.9L93,154.7c-6.3-0.5-11.1-5.9-10.6-12.2l0.7-11.3c0.5-5.6,5.4-9.9,11.1-9.4l2.1,0.2
			c8.2,0.5,14.3,7.8,13.6,15.8L108.8,155.9z"/>
		<path class="st3" d="M108.1,165.5l0.7-9.6L93,154.7c-6.3-0.5-11.1-5.9-10.6-12.2l-0.5,5.6c-1.2,15,10.1,28,25.2,29.2l11.8,0.9
			C112.5,177.7,107.6,172.1,108.1,165.5z"/>
		<path class="st4" d="M119.3,178.2h-0.2c-6.3-0.5-11.3-6.1-10.8-12.5l0.7-9.9l14.3,0.9c5.2,0.5,9.2,4.9,8.7,10.1v0.2
			C131.3,173.8,125.7,178.7,119.3,178.2z"/>
	</g>
</g>
</svg>
