<svg version="1.1" xmlns="http://www.w3.org/2000/svg" viewBox="0 0 612 124">
    <path fill="#ffffff" d="M222.5,17.7H206c-0.3,0-0.7,0.2-0.9,0.5l-17.3,33.2c-0.1,0.2-0.3,0.3-0.4,0.3c-0.2,0-0.4-0.1-0.5-0.3 l-17.4-33.2c-0.2-0.3-0.4-0.5-0.9-0.5H152c-0.7,0-1.1,0.5-1.1,1.2v80.4c0,0.7,0.4,1.1,1.1,1.1h16.1c0.7,0,1.2-0.4,1.2-1.1V52.5 c0-0.3,0.2-0.5,0.5-0.5c0.2,0,0.3,0.1,0.4,0.3l11.9,22.3c0.2,0.3,0.5,0.5,0.9,0.5h8.5c0.4,0,0.7-0.3,1-0.6l11.7-21.9 c0.1-0.2,0.2-0.3,0.4-0.3c0.3,0,0.5,0.2,0.5,0.5v46.4c0,0.7,0.5,1.1,1.2,1.1h16.1c0.7,0,1.1-0.4,1.1-1.1V18.9 C223.6,18.2,223.2,17.7,222.5,17.7z M593.5,71.4c0-14.7-3.5-16.9-7.9-16.9s-7.9,2.2-7.9,16.9c0,14.8,3.5,17,7.9,17 S593.5,86.2,593.5,71.4z M611,71.4c0,21.6-11.4,29.9-25.4,29.9c-14.1,0-25.6-8.3-25.6-29.9c0-21.5,11.5-29.9,25.6-29.9 C599.6,41.6,611,50,611,71.4z M523,42.6c0-0.4,0.3-1,0.7-1c9.9,0,11.5-10.2,11.8-13c0.1-0.4,0.5-0.9,1-0.9h8.9c0.5,0,1,0.4,1,1 v12.4c0,0.3,0.3,0.5,0.5,0.5h7.5c0.5,0,1,0.4,1,1v10c0,0.5-0.4,1-1,1h-7.5c-0.2,0-0.5,0.2-0.5,0.5c0,3.7,0.1,27,0.1,27.8 c0.3,5.4,4.3,6.2,8.1,6.4c0.5,0,1,0.4,1,1v10.1c0,0.5-0.4,1-1,1c-20.2-0.2-25.7-5.2-25.9-19.8v-0.3v-0.4l-0.1-25.7 c0-0.3-0.2-0.5-0.5-0.5h-4c-0.5,0-1-0.4-1-1L523,42.6L523,42.6z M486.3,42.6c0-0.4,0.3-1,0.7-1c9.9,0,11.5-10.2,11.8-13 c0.1-0.4,0.5-0.9,1-0.9h8.9c0.5,0,1,0.4,1,1v12.4c0,0.3,0.3,0.5,0.5,0.5h7.5c0.5,0,1,0.4,1,1v10c0,0.5-0.4,1-1,1h-7.5 c-0.2,0-0.5,0.2-0.5,0.5c0,3.7,0.1,27,0.1,27.8c0.3,5.4,4.3,6.2,8.1,6.4c0.5,0,1,0.4,1,1v10.1c0,0.5-0.4,1-1,1 c-20.2-0.2-25.7-5.2-25.9-19.8v-0.3v-0.4l-0.1-25.7c0-0.3-0.2-0.5-0.5-0.5h-4c-0.5,0-1-0.4-1-1L486.3,42.6L486.3,42.6z M465.2,71.4c0-14.7-3.5-16.9-7.9-16.9s-7.9,2.2-7.9,16.9c0,14.8,3.5,17,7.9,17S465.2,86.2,465.2,71.4z M482.7,71.4 c0,21.6-11.4,29.9-25.4,29.9c-14.1,0-25.6-8.3-25.6-29.9c0-21.5,11.5-29.9,25.6-29.9C471.4,41.6,482.7,50,482.7,71.4z M421.7,80.8 c0,4.3-0.1,7.4,4.9,7.4c0.5,0,1,0.4,1,1v10.2c0,0.5-0.4,1-1,1c-20.4-0.2-22.8-7-22.8-21.6V18c0-0.5,0.4-1,1-1h15.9 c0.5,0,1,0.4,1,1V80.8z M363.9,84.4c0.4,3.6,3.4,3.8,6.3,3.7c4.5-0.2,6.5-4.1,6.5-7.9v-4.6c0-0.3-0.2-0.6-0.5-0.6 c-0.1,0-0.1,0.1-0.2,0.1C372.6,77,362.9,76.2,363.9,84.4z M346.2,85.3c1.1-22.9,30.7-12.4,30.7-25.4c0-3.7-3.2-5.5-6.2-5.5 c-5.2,0-6.7,3.4-6.6,7.1c0,0.4-0.3,0.6-0.6,0.6h-15.1c-0.4,0-0.7-0.3-0.7-0.7c-0.1-12,9.5-20,22.8-20c14.5,0,24,4.9,24,18.1v32.6 c0,4.1,0.9,5.6,1.8,7.2c0.3,0.6-0.1,1.1-0.7,1.1h-13.2c-1.1,0-1.4-0.5-1.7-1c-0.6-0.9-1.4-1.9-2.6-3.5c-0.1-0.2-0.3-0.3-0.5-0.3 c-0.1,0-0.3,0.1-0.4,0.3c-2.1,3.1-7.1,5.6-15.1,5.2C350.5,101.1,346,93.6,346.2,85.3z M322.5,69.2c0-12.5-3.6-14.9-8.2-14.9 c-4.5,0-8.2,2.3-8.2,14.9c0,12.8,3.7,14.8,8.2,14.8C318.9,84,322.5,81.8,322.5,69.2z M339.3,100.2c-1.6,13.8-10.7,22.8-25.1,22.8 c-14.1,0-22.8-8.5-24.9-20.9c-0.1-0.5,0.3-1.1,1-1.1h16.3c0.5,0,1,0.4,1,1v2.6c0,3.7,3,6.8,6.7,6.8s6.8-3.1,6.8-6.8v-4.4 c0-0.5,0.4-1,1-1h16.4C339,99.2,339.4,99.6,339.3,100.2z M339.7,67.9c0,16.2-8.5,27.9-25.4,27.9c-16.4,0-25.3-11.4-25.3-27.2 c0-19.9,13.5-27.1,25.3-27.1c5.2,0,9.8,1.1,13.5,3.2v-1.3c0-0.5,0.4-1,1-1h10c0.5,0,1,0.4,1,1v24.5H339.7z M249.6,64 c0,0.3,0.2,0.6,0.5,0.6H264c0.3,0,0.6-0.3,0.5-0.6c-1-8.3-3.9-9.7-7.4-9.7S250.7,55.7,249.6,64z M280.5,80.3c0.6,0,1.1,0.6,1,1.2 c-3.1,14-12.9,19.7-24.5,19.7c-14,0-25.5-8.3-25.5-29.9c0-21.5,11.5-29.9,25.5-29.9c14.1,0,25.5,8.4,25.5,29.9c0,1.1,0,2-0.1,3 c0,0.5-0.4,1-1,1h-31.6c-0.3,0-0.5,0.2-0.5,0.5c0.6,10.7,3.8,12.5,7.8,12.5c3.1,0,5.7-1.2,7-7.2c0.1-0.4,0.5-0.7,1-0.7L280.5,80.3 L280.5,80.3z"/>
	<path fill="#ffffff" d="M57.5,64.1c1.8-1.8,1.8-4.5,0-6.2L25.3,25.5c-1.8-1.8-4.6-1.9-6.2,0L3.2,46.4c-1.8,2-1.5,4.7,0.3,6.5l5,5 c1.7,1.7,1.7,4.5-0.1,6.4l-5,5c-1.8,1.8-1.8,4.7,0,6.9L19,96.6c1.7,1.8,4.5,1.8,6.2,0L57.5,64.1z M120.5,69.1l-5-5 c-1.7-1.7-1.7-4.5,0.1-6.4l5-5c1.8-1.8,1.8-4.7,0-6.9L105,25.4c-1.7-1.8-4.5-1.8-6.2,0L66.5,57.9c-1.8,1.8-1.8,4.5,0,6.2 l32.4,32.4c1.8,1.8,4.6,1.9,6.2,0l15.8-21C122.5,73.4,122.3,70.7,120.5,69.1z M65.2,65.4c-1.8-1.8-4.5-1.8-6.2,0L26.5,97.7 c-1.8,1.8-1.9,4.6,0,6.2l21,15.8c2,1.8,4.7,1.5,6.5-0.3l5-5c1.7-1.7,4.5-1.7,6.4,0.1l5,5c1.8,1.8,4.7,1.8,6.9,0L97.7,104 c1.8-1.7,1.8-4.5,0-6.2L65.2,65.4z M26.5,24.3c-1.8-1.8-1.8-4.6,0-6.2L47.1,2.3c2-1.8,5.1-1.8,6.9,0l5,5c1.9,1.8,4.7,1.8,6.4,0.1 l5-5c1.8-1.8,4.3-2,6.5-0.3l21,15.8c1.9,1.7,1.8,4.5,0,6.2L65.2,56.5c-1.8,1.8-4.5,1.8-6.2,0L26.5,24.3z"/>
</svg>
