<svg version="1.1" xmlns="http://www.w3.org/2000/svg" viewBox="0 0 100 75">
<style type="text/css">
	.st0{fill:none;}
	.st1{fill-rule:evenodd;clip-rule:evenodd;fill:url(#SVGID_1_);}
	.st2{fill:#1E2131;}
	.st3{fill-rule:evenodd;clip-rule:evenodd;fill:url(#SVGID_2_);}
</style>
<defs>
</defs>
<rect class="st0" width="100" height="75"/>
<g>

		<linearGradient id="SVGID_1_" gradientUnits="userSpaceOnUse" x1="-454.0303" y1="-448.933" x2="-470.1539" y2="-442.7229" gradientTransform="matrix(1 0 0 1 481 483.2505)">
		<stop  offset="0" style="stop-color:#FF6E47"/>
		<stop  offset="1" style="stop-color:#F8464E"/>
	</linearGradient>
	<path class="st1" d="M18.2,37.9c0.2-0.2,0.2-0.5,0-0.7l-3.7-3.8c-0.2-0.2-0.5-0.2-0.7,0l-1.8,2.4c-0.2,0.2-0.2,0.5,0,0.8l0.6,0.6
		c0.2,0.2,0.2,0.5,0,0.7l-0.6,0.6c-0.2,0.2-0.2,0.5,0,0.8l1.8,2.4c0.2,0.2,0.5,0.2,0.7,0L18.2,37.9z M25.5,38.4l-0.6-0.6
		c-0.2-0.2-0.2-0.5,0-0.7l0.6-0.6c0.2-0.2,0.2-0.5,0-0.8l-1.8-2.4c-0.2-0.2-0.5-0.2-0.7,0l-3.8,3.8c-0.2,0.2-0.2,0.5,0,0.7l3.8,3.8
		c0.2,0.2,0.5,0.2,0.7,0l1.8-2.4C25.7,38.9,25.7,38.6,25.5,38.4z M19.1,38c-0.2-0.2-0.5-0.2-0.7,0l-3.8,3.7c-0.2,0.2-0.2,0.5,0,0.7
		l2.4,1.8c0.2,0.2,0.5,0.2,0.8,0l0.6-0.6c0.2-0.2,0.5-0.2,0.7,0l0.6,0.6c0.2,0.2,0.5,0.2,0.8,0l2.4-1.8c0.2-0.2,0.2-0.5,0-0.7
		L19.1,38z M14.6,33.3c-0.2-0.2-0.2-0.5,0-0.7l2.4-1.8c0.2-0.2,0.6-0.2,0.8,0l0.6,0.6c0.2,0.2,0.5,0.2,0.7,0l0.6-0.6
		c0.2-0.2,0.5-0.2,0.8,0l2.4,1.8c0.2,0.2,0.2,0.5,0,0.7L19.1,37c-0.2,0.2-0.5,0.2-0.7,0L14.6,33.3z"/>
	<path class="st2" d="M39.5,31.7h-2c0,0-0.1,0-0.1,0.1l-2.1,4c0,0,0,0,0,0c0,0,0,0-0.1,0l-2.1-4c0,0,0-0.1-0.1-0.1h-2
		c-0.1,0-0.1,0.1-0.1,0.1v9.7c0,0.1,0,0.1,0.1,0.1H33c0.1,0,0.1,0,0.1-0.1v-5.6c0,0,0-0.1,0.1-0.1c0,0,0,0,0,0l1.4,2.7
		c0,0,0.1,0.1,0.1,0.1h1c0,0,0.1,0,0.1-0.1l1.4-2.6c0,0,0,0,0,0c0,0,0.1,0,0.1,0.1v5.6c0,0.1,0.1,0.1,0.1,0.1h1.9
		c0.1,0,0.1,0,0.1-0.1v-9.7C39.7,31.8,39.6,31.7,39.5,31.7z M84.2,38.2c0-1.8-0.4-2-0.9-2s-0.9,0.3-0.9,2c0,1.8,0.4,2,0.9,2
		S84.2,39.9,84.2,38.2z M86.3,38.2c0,2.6-1.4,3.6-3.1,3.6c-1.7,0-3.1-1-3.1-3.6c0-2.6,1.4-3.6,3.1-3.6
		C84.9,34.6,86.3,35.6,86.3,38.2z M75.7,34.7c0,0,0-0.1,0.1-0.1c1.2,0,1.4-1.2,1.4-1.6c0,0,0.1-0.1,0.1-0.1h1.1c0.1,0,0.1,0,0.1,0.1
		v1.5c0,0,0,0.1,0.1,0.1h0.9c0.1,0,0.1,0,0.1,0.1v1.2c0,0.1,0,0.1-0.1,0.1h-0.9c0,0-0.1,0-0.1,0.1c0,0.4,0,3.2,0,3.3
		c0,0.6,0.5,0.7,1,0.8c0.1,0,0.1,0,0.1,0.1v1.2c0,0.1,0,0.1-0.1,0.1c-2.4,0-3.1-0.6-3.1-2.4v0v0l0-3.1c0,0,0-0.1-0.1-0.1h-0.5
		c-0.1,0-0.1,0-0.1-0.1L75.7,34.7L75.7,34.7z M71.3,34.7c0,0,0-0.1,0.1-0.1c1.2,0,1.4-1.2,1.4-1.6c0,0,0.1-0.1,0.1-0.1H74
		c0.1,0,0.1,0,0.1,0.1v1.5c0,0,0,0.1,0.1,0.1H75c0.1,0,0.1,0,0.1,0.1v1.2c0,0.1,0,0.1-0.1,0.1h-0.9c0,0-0.1,0-0.1,0.1
		c0,0.4,0,3.2,0,3.3c0,0.6,0.5,0.7,1,0.8c0.1,0,0.1,0,0.1,0.1v1.2c0,0.1,0,0.1-0.1,0.1c-2.4,0-3.1-0.6-3.1-2.4v0v0l0-3.1
		c0,0,0-0.1-0.1-0.1h-0.5c-0.1,0-0.1,0-0.1-0.1L71.3,34.7L71.3,34.7z M68.7,38.2c0-1.8-0.4-2-0.9-2s-0.9,0.3-0.9,2
		c0,1.8,0.4,2,0.9,2S68.7,39.9,68.7,38.2z M70.8,38.2c0,2.6-1.4,3.6-3.1,3.6c-1.7,0-3.1-1-3.1-3.6c0-2.6,1.4-3.6,3.1-3.6
		C69.5,34.6,70.8,35.6,70.8,38.2z M63.5,39.3c0,0.5,0,0.9,0.6,0.9c0.1,0,0.1,0,0.1,0.1v1.2c0,0.1,0,0.1-0.1,0.1
		c-2.5,0-2.7-0.8-2.7-2.6v-7.3c0-0.1,0-0.1,0.1-0.1h1.9c0.1,0,0.1,0,0.1,0.1V39.3z M56.5,39.7c0,0.4,0.4,0.5,0.8,0.4
		c0.5,0,0.8-0.5,0.8-0.9v-0.6c0,0,0-0.1-0.1-0.1c0,0,0,0,0,0C57.6,38.8,56.4,38.7,56.5,39.7z M54.4,39.8c0.1-2.8,3.7-1.5,3.7-3.1
		c0-0.4-0.4-0.7-0.7-0.7c-0.6,0-0.8,0.4-0.8,0.9c0,0,0,0.1-0.1,0.1h-1.8c0,0-0.1,0-0.1-0.1c0-1.4,1.1-2.4,2.7-2.4
		c1.7,0,2.9,0.6,2.9,2.2v3.9c0,0.5,0.1,0.7,0.2,0.9c0,0.1,0,0.1-0.1,0.1h-1.6c-0.1,0-0.2-0.1-0.2-0.1c-0.1-0.1-0.2-0.2-0.3-0.4
		c0,0,0,0-0.1,0c0,0,0,0,0,0c-0.3,0.4-0.9,0.7-1.8,0.6C54.9,41.7,54.4,40.8,54.4,39.8z M51.6,37.9c0-1.5-0.4-1.8-1-1.8
		c-0.5,0-1,0.3-1,1.8c0,1.5,0.4,1.8,1,1.8C51.1,39.7,51.6,39.4,51.6,37.9z M53.6,41.6c-0.2,1.7-1.3,2.7-3,2.7c-1.7,0-2.7-1-3-2.5
		c0-0.1,0-0.1,0.1-0.1h2c0.1,0,0.1,0,0.1,0.1v0.3c0,0.4,0.4,0.8,0.8,0.8s0.8-0.4,0.8-0.8v-0.5c0-0.1,0-0.1,0.1-0.1h2
		C53.5,41.5,53.6,41.6,53.6,41.6z M53.6,37.7c0,1.9-1,3.4-3.1,3.4c-2,0-3-1.4-3-3.3c0-2.4,1.6-3.3,3-3.3c0.6,0,1.2,0.1,1.6,0.4v-0.2
		c0-0.1,0-0.1,0.1-0.1h1.2c0.1,0,0.1,0,0.1,0.1L53.6,37.7C53.7,37.7,53.6,37.7,53.6,37.7z M42.8,37.3C42.8,37.3,42.8,37.4,42.8,37.3
		l1.7,0.1c0,0,0.1,0,0.1-0.1c-0.1-1-0.5-1.2-0.9-1.2S42.9,36.3,42.8,37.3z M46.5,39.2c0.1,0,0.1,0.1,0.1,0.1
		c-0.4,1.7-1.6,2.4-2.9,2.4c-1.7,0-3.1-1-3.1-3.6c0-2.6,1.4-3.6,3.1-3.6c1.7,0,3.1,1,3.1,3.6c0,0.1,0,0.2,0,0.4c0,0.1,0,0.1-0.1,0.1
		h-3.8c0,0-0.1,0-0.1,0.1c0.1,1.3,0.5,1.5,0.9,1.5c0.4,0,0.7-0.1,0.8-0.9c0,0,0.1-0.1,0.1-0.1L46.5,39.2L46.5,39.2z"/>
</g>
</svg>
