<?xml version="1.0" encoding="utf-8"?>
<!-- Generator: Adobe Illustrator 24.1.0, SVG Export Plug-In . SVG Version: 6.00 Build 0)  -->
<svg version="1.1" id="Layer_1" xmlns="http://www.w3.org/2000/svg" xmlns:xlink="http://www.w3.org/1999/xlink" x="0px" y="0px"
	 viewBox="0 0 400 300" style="enable-background:new 0 0 400 300;" xml:space="preserve">
<style type="text/css">
	.st0{fill:none;}
	.st1{fill-rule:evenodd;clip-rule:evenodd;fill:#1E2131;}
	.st2{fill-rule:evenodd;clip-rule:evenodd;fill:url(#SVGID_1_);}
</style>
<g>
	<rect class="st0" width="400" height="300"/>
	<g>
		<path class="st1" d="M157.1,127.2h-7.7c-0.2,0-0.3,0.1-0.4,0.3l-8.1,15.5c-0.1,0.1-0.2,0.2-0.2,0.2c-0.1,0-0.2-0.1-0.3-0.2
			l-8.1-15.5c-0.1-0.1-0.2-0.3-0.4-0.3h-7.8c-0.3,0-0.5,0.3-0.5,0.6v37.6c0,0.3,0.2,0.5,0.5,0.5h7.5c0.3,0,0.6-0.2,0.6-0.5v-21.9
			c0-0.2,0.1-0.3,0.3-0.3c0.1,0,0.2,0.1,0.2,0.2l5.6,10.4c0.1,0.2,0.3,0.3,0.4,0.3h4c0.2,0,0.3-0.1,0.4-0.3l5.5-10.3
			c0.1-0.1,0.1-0.2,0.2-0.2c0.2,0,0.3,0.1,0.3,0.3v21.7c0,0.3,0.3,0.5,0.6,0.5h7.5c0.3,0,0.5-0.2,0.5-0.5v-37.6
			C157.6,127.4,157.4,127.2,157.1,127.2z M331.1,152.3c0-6.9-1.6-7.9-3.7-7.9s-3.7,1-3.7,7.9c0,6.9,1.6,8,3.7,8
			S331.1,159.2,331.1,152.3z M339.3,152.3c0,10.1-5.3,14-11.9,14c-6.6,0-12-3.9-12-14c0-10.1,5.4-14,12-14
			C333.9,138.3,339.3,142.3,339.3,152.3z M298,138.8c0-0.2,0.1-0.4,0.3-0.4c4.6,0,5.4-4.8,5.5-6.1c0-0.2,0.2-0.4,0.4-0.4h4.2
			c0.2,0,0.4,0.2,0.4,0.4v5.8c0,0.1,0.1,0.2,0.2,0.2h3.5c0.2,0,0.4,0.2,0.4,0.4v4.7c0,0.2-0.2,0.4-0.4,0.4h-3.5
			c-0.1,0-0.2,0.1-0.2,0.2c0,1.7,0,12.6,0,13c0.1,2.5,2,2.9,3.8,3c0.3,0,0.4,0.2,0.4,0.4v4.7c0,0.2-0.2,0.4-0.4,0.4
			c-9.5-0.1-12.1-2.4-12.2-9.3v-0.1v-0.2l0-12c0-0.1-0.1-0.2-0.2-0.2h-1.9c-0.2,0-0.4-0.2-0.4-0.4V138.8z M280.8,138.8
			c0-0.2,0.1-0.4,0.3-0.4c4.6,0,5.4-4.8,5.5-6.1c0-0.2,0.2-0.4,0.4-0.4h4.2c0.2,0,0.4,0.2,0.4,0.4v5.8c0,0.1,0.2,0.2,0.2,0.2h3.5
			c0.3,0,0.4,0.2,0.4,0.4v4.7c0,0.2-0.2,0.4-0.4,0.4H292c-0.1,0-0.2,0.1-0.2,0.2c0,1.7,0,12.6,0,13c0.2,2.5,2,2.9,3.8,3
			c0.3,0,0.4,0.2,0.4,0.4v4.7c0,0.2-0.2,0.4-0.4,0.4c-9.5-0.1-12.1-2.4-12.2-9.3v-0.1v-0.2l0-12c0-0.1-0.1-0.2-0.3-0.2h-1.9
			c-0.3,0-0.4-0.2-0.4-0.4V138.8z M270.9,152.3c0-6.9-1.6-7.9-3.7-7.9c-2,0-3.7,1-3.7,7.9c0,6.9,1.6,8,3.7,8
			C269.3,160.3,270.9,159.2,270.9,152.3z M279.1,152.3c0,10.1-5.3,14-11.9,14c-6.6,0-12-3.9-12-14c0-10.1,5.4-14,12-14
			C273.8,138.3,279.1,142.3,279.1,152.3z M250.5,156.7c0,2-0.1,3.5,2.3,3.5c0.2,0,0.4,0.2,0.4,0.4v4.8c0,0.2-0.2,0.4-0.4,0.4
			c-9.6-0.1-10.7-3.3-10.7-10.1v-28.5c0-0.2,0.2-0.4,0.4-0.4h7.5c0.2,0,0.4,0.2,0.4,0.4V156.7z M223.4,158.4
			c0.2,1.7,1.6,1.8,2.9,1.7c2.1-0.1,3-1.9,3-3.7v-2.1c0-0.1-0.1-0.3-0.2-0.3c-0.1,0-0.1,0-0.1,0
			C227.5,154.9,222.9,154.5,223.4,158.4z M215.1,158.8c0.5-10.7,14.4-5.8,14.4-11.9c0-1.7-1.5-2.6-2.9-2.6c-2.4,0-3.1,1.6-3.1,3.3
			c0,0.2-0.1,0.3-0.3,0.3h-7.1c-0.2,0-0.3-0.1-0.3-0.3c0-5.6,4.4-9.4,10.7-9.4c6.8,0,11.3,2.3,11.3,8.5V162c0,1.9,0.4,2.6,0.8,3.4
			c0.2,0.3-0.1,0.5-0.3,0.5h-6.2c-0.5,0-0.7-0.2-0.8-0.4c-0.3-0.4-0.6-0.9-1.2-1.6c-0.1-0.1-0.1-0.1-0.2-0.1c-0.1,0-0.1,0.1-0.2,0.1
			c-1,1.4-3.3,2.6-7.1,2.4C217.2,166.2,215,162.7,215.1,158.8z M204,151.3c0-5.9-1.7-7-3.8-7c-2.1,0-3.8,1.1-3.8,7
			c0,6,1.7,6.9,3.8,6.9C202.3,158.2,204,157.2,204,151.3z M211.9,165.8c-0.7,6.5-5,10.6-11.8,10.6c-6.6,0-10.7-4-11.7-9.8
			c0-0.2,0.1-0.5,0.4-0.5h7.6c0.2,0,0.4,0.2,0.4,0.4v1.2c0,1.7,1.4,3.2,3.1,3.2c1.7,0,3.2-1.4,3.2-3.2v-2c0-0.2,0.2-0.4,0.4-0.4h7.7
			C211.7,165.3,211.9,165.5,211.9,165.8z M212.1,150.7c0,7.6-4,13-11.9,13c-7.7,0-11.9-5.3-11.9-12.7c0-9.3,6.3-12.7,11.9-12.7
			c2.4,0,4.6,0.5,6.3,1.5v-0.6c0-0.2,0.2-0.4,0.4-0.4h4.7c0.2,0,0.4,0.2,0.4,0.4V150.7z M169.8,148.8c0,0.1,0.1,0.3,0.2,0.3h6.5
			c0.2,0,0.3-0.1,0.2-0.3c-0.4-3.9-1.8-4.5-3.5-4.5C171.7,144.3,170.3,145,169.8,148.8z M184.3,156.5c0.3,0,0.5,0.3,0.4,0.5
			c-1.4,6.6-6,9.2-11.5,9.2c-6.6,0-12-3.9-12-14c0-10.1,5.4-14,12-14c6.6,0,12,3.9,12,14c0,0.5,0,0.9-0.1,1.4c0,0.2-0.2,0.4-0.4,0.4
			H170c-0.1,0-0.2,0.1-0.2,0.2c0.3,5,1.8,5.9,3.6,5.9c1.4,0,2.7-0.5,3.3-3.4c0-0.2,0.2-0.3,0.4-0.3H184.3z"/>
	</g>
	
		<linearGradient id="SVGID_1_" gradientUnits="userSpaceOnUse" x1="107.8886" y1="163.6399" x2="43.8395" y2="138.9709" gradientTransform="matrix(1 0 0 -1 0 301)">
		<stop  offset="0" style="stop-color:#FF6E47"/>
		<stop  offset="1" style="stop-color:#F8464E"/>
	</linearGradient>
	<path class="st2" d="M72.9,151.4c0.8-0.8,0.8-2.1,0-2.9l-14.8-14.9c-0.8-0.8-2.1-0.9-2.9,0l-7.3,9.6c-0.8,0.9-0.7,2.2,0.1,3
		l2.3,2.3c0.8,0.8,0.8,2.1-0.1,2.9l-2.3,2.3c-0.8,0.8-0.8,2.2,0,3.2l7.2,9.4c0.8,0.8,2.1,0.8,2.9,0L72.9,151.4z M101.9,153.7
		l-2.3-2.3c-0.8-0.8-0.8-2.1,0.1-2.9l2.3-2.3c0.8-0.8,0.8-2.2,0-3.2l-7.2-9.4c-0.8-0.8-2.1-0.8-2.9,0L77,148.6
		c-0.8,0.8-0.8,2.1,0,2.9l14.9,14.9c0.8,0.8,2.1,0.9,2.9,0l7.3-9.7C102.9,155.7,102.7,154.5,101.9,153.7z M76.5,152
		c-0.8-0.8-2.1-0.8-2.9,0l-14.9,14.9c-0.8,0.8-0.9,2.1,0,2.9l9.7,7.3c0.9,0.8,2.2,0.7,3-0.1l2.3-2.3c0.8-0.8,2.1-0.8,2.9,0.1
		l2.3,2.3c0.8,0.8,2.2,0.8,3.2,0l9.4-7.2c0.8-0.8,0.8-2.1,0-2.9L76.5,152z M58.7,133.1c-0.8-0.8-0.8-2.1,0-2.9l9.4-7.2
		c0.9-0.8,2.3-0.8,3.2,0l2.3,2.3c0.9,0.8,2.2,0.8,2.9,0.1l2.3-2.3c0.8-0.8,2-0.9,3-0.1l9.7,7.3c0.9,0.8,0.8,2.1,0,2.9l-15,14.8
		c-0.8,0.8-2.1,0.8-2.9,0L58.7,133.1z"/>
</g>
</svg>
