<?xml version="1.0" encoding="utf-8"?>
<!-- Generator: Adobe Illustrator 24.1.0, SVG Export Plug-In . SVG Version: 6.00 Build 0)  -->
<svg version="1.1" id="Layer_1" xmlns="http://www.w3.org/2000/svg" xmlns:xlink="http://www.w3.org/1999/xlink" x="0px" y="0px"
	 viewBox="0 0 400 300" style="enable-background:new 0 0 400 300;" xml:space="preserve">
<style type="text/css">
	.st0{fill:none;}
	.st1{fill:#171C30;}
	.st2{opacity:0.5;fill:#171C30;enable-background:new    ;}
</style>
<rect class="st0" width="400" height="300"/>
<g>
	<g>
		<path class="st1" d="M179.1,161.1c0,0.3-0.1,0.4-0.4,0.4h-1c-0.3,0-0.4-0.1-0.4-0.4v-18.8l-0.6,1.8l-5.6,13.5
			c-0.1,0.3-0.3,0.4-0.5,0.4h-1c-0.3,0-0.4-0.1-0.5-0.4l-5.8-13.7c-0.2-0.5-0.5-1.3-0.5-1.5v18.7c0,0.3-0.1,0.4-0.4,0.4h-0.9
			c-0.3,0-0.4-0.1-0.4-0.4v-22.3c0-0.3,0.1-0.4,0.4-0.4h0.9c0.2,0,0.3,0.1,0.4,0.2l6.7,15.9c0.3,0.7,0.5,1.6,0.5,1.6s0.3-1,0.6-1.6
			l6.7-15.9c0.1-0.2,0.2-0.2,0.4-0.2h1c0.3,0,0.4,0.1,0.4,0.4L179.1,161.1L179.1,161.1z"/>
		<path class="st1" d="M189.1,143c0-2.6,1.6-4.8,7.1-4.8c5.5,0,7.1,2.1,7.1,4.8V157c0,2.6-1.7,4.8-7.1,4.8c-5.4,0-7.1-2.1-7.1-4.8
			V143z M201.4,143.2c0-2.1-1.3-3.5-5.3-3.5c-3.9,0-5.3,1.4-5.3,3.5v13.5c0,2.1,1.3,3.5,5.3,3.5c4,0,5.3-1.4,5.3-3.5V143.2z"/>
		<path class="st1" d="M213.6,161.5c-0.3,0-0.4-0.1-0.4-0.4v-22.3c0-0.3,0.1-0.4,0.4-0.4h6.7c5.4,0,7.1,2.1,7.1,4.8v13.5
			c0,2.6-1.7,4.8-7.1,4.8L213.6,161.5L213.6,161.5z M215,140v20h5.3c4,0,5.3-1.4,5.3-3.5v-13c0-2.1-1.3-3.5-5.3-3.5L215,140L215,140
			z"/>
		<path class="st1" d="M239,156.8c0,2.1,1.3,3.5,5.3,3.5s5.3-1.4,5.3-3.5v-17.9c0-0.3,0.1-0.4,0.4-0.4h1c0.3,0,0.4,0.1,0.4,0.4V157
			c0,2.6-1.6,4.8-7.1,4.8c-5.4,0-7.1-2.1-7.1-4.8v-18.2c0-0.3,0.1-0.4,0.4-0.4h1c0.3,0,0.4,0.1,0.4,0.4L239,156.8L239,156.8z"/>
		<path class="st1" d="M263.2,160h10.1c0.3,0,0.4,0.1,0.4,0.4v0.7c0,0.3-0.1,0.4-0.4,0.4h-11.5c-0.2,0-0.3-0.1-0.3-0.4v-22.3
			c0-0.3,0.1-0.4,0.4-0.4h1c0.3,0,0.4,0.1,0.4,0.4L263.2,160L263.2,160z"/>
		<path class="st1" d="M290,138.4c0.3,0,0.4,0.1,0.5,0.4l6.9,22.3c0.1,0.3,0,0.4-0.3,0.4h-1.1c-0.3,0-0.4-0.1-0.5-0.4l-2.1-6.6h-8.2
			l-2,6.6c-0.1,0.3-0.2,0.4-0.5,0.4h-1c-0.3,0-0.4-0.1-0.3-0.4l6.9-22.3c0.1-0.3,0.2-0.4,0.5-0.4C289,138.4,290,138.4,290,138.4z
			 M290.3,144c-0.3-1.1-0.8-3.3-0.8-3.6c0,0.2-0.4,2.4-0.8,3.5l-2.9,9.2h7.3L290.3,144z"/>
		<path class="st1" d="M308.2,152v9.2c0,0.3-0.1,0.4-0.4,0.4h-1c-0.3,0-0.4-0.1-0.4-0.4v-22.3c0-0.3,0.1-0.4,0.4-0.4h6.6
			c5.5,0,7.1,2.1,7.1,4.8v3.9c0,2.2-1.1,4-4.3,4.6l4.7,9.4c0.1,0.2-0.1,0.4-0.4,0.4h-1c-0.3,0-0.4-0.2-0.5-0.4l-4.5-9.2
			c-0.3,0-0.7,0-1,0C313.4,152,308.2,152,308.2,152z M308.2,140v10.4h5.2c4,0,5.3-1.4,5.3-3.5v-3.4c0-2.1-1.3-3.5-5.3-3.5L308.2,140
			L308.2,140z"/>
	</g>
	<g>
		<polygon class="st1" points="79.6,134.3 106.5,118.7 133.5,134.3 106.5,150 		"/>
		<polygon class="st2" points="106.7,165.7 106.7,181.3 79.7,165.7 79.7,150 		"/>
		<polygon class="st1" points="106.7,165.7 106.7,181.3 133.6,165.7 133.6,150 		"/>
	</g>
</g>
</svg>
