<!-- Generator: Adobe Illustrator 24.1.0, SVG Export Plug-In  -->
<svg version="1.1" xmlns="http://www.w3.org/2000/svg" xmlns:xlink="http://www.w3.org/1999/xlink" x="0px" y="0px" width="301.2px"
	 height="78.8px" viewBox="0 0 301.2 78.8" style="enable-background:new 0 0 301.2 78.8;" xml:space="preserve">
<style type="text/css">
	.st0{fill:#FFFFFF;}
	.st1{opacity:0.5;fill:#FFFFFF;enable-background:new    ;}
</style>
<defs>
</defs>
<g>
	<g>
		<path class="st0" d="M124.1,53.3c0,0.3-0.1,0.5-0.5,0.5h-1.2c-0.3,0-0.5-0.2-0.5-0.5V29.8l-0.8,2.2l-7,16.9
			c-0.1,0.3-0.3,0.5-0.7,0.5h-1.2c-0.3,0-0.5-0.2-0.6-0.5l-7.2-17.2c-0.3-0.6-0.6-1.7-0.6-1.9v23.4c0,0.3-0.1,0.5-0.5,0.5h-1.1
			c-0.3,0-0.5-0.2-0.5-0.5V25.4c0-0.3,0.2-0.5,0.5-0.5h1.1c0.3,0,0.4,0.1,0.5,0.3l8.4,19.8c0.4,0.9,0.7,2,0.7,2s0.4-1.2,0.7-2
			l8.3-19.9c0.1-0.2,0.2-0.3,0.5-0.3h1.2c0.3,0,0.5,0.2,0.5,0.5L124.1,53.3L124.1,53.3z"/>
		<path class="st0" d="M136.5,30.6c0-3.3,2-6,8.8-6c6.8,0,8.9,2.7,8.9,6v17.6c0,3.3-2.1,6-8.9,6c-6.8,0-8.8-2.7-8.8-6V30.6z
			 M152,30.9c0-2.6-1.7-4.4-6.6-4.4c-4.9,0-6.6,1.8-6.6,4.4v16.9c0,2.6,1.7,4.4,6.6,4.4c5,0,6.6-1.8,6.6-4.4V30.9z"/>
		<path class="st0" d="M167.1,53.8c-0.3,0-0.5-0.2-0.5-0.5V25.4c0-0.3,0.2-0.5,0.5-0.5h8.4c6.8,0,8.9,2.7,8.9,6v16.9
			c0,3.3-2.1,6-8.9,6L167.1,53.8L167.1,53.8z M168.9,26.9v25h6.6c5,0,6.6-1.8,6.6-4.4V31.3c0-2.6-1.7-4.4-6.6-4.4L168.9,26.9
			L168.9,26.9z"/>
		<path class="st0" d="M198.9,47.8c0,2.6,1.7,4.4,6.6,4.4s6.6-1.8,6.6-4.4V25.4c0-0.3,0.2-0.5,0.5-0.5h1.3c0.3,0,0.5,0.2,0.5,0.5
			v22.7c0,3.3-2,6-8.9,6c-6.8,0-8.9-2.7-8.9-6V25.4c0-0.3,0.2-0.5,0.5-0.5h1.3c0.3,0,0.5,0.2,0.5,0.5L198.9,47.8L198.9,47.8z"/>
		<path class="st0" d="M229.2,51.9h12.6c0.3,0,0.5,0.1,0.5,0.5v0.9c0,0.4-0.2,0.5-0.5,0.5h-14.4c-0.3,0-0.4-0.2-0.4-0.5V25.4
			c0-0.3,0.2-0.5,0.5-0.5h1.3c0.3,0,0.5,0.2,0.5,0.5L229.2,51.9L229.2,51.9z"/>
		<path class="st0" d="M262.8,24.9c0.3,0,0.6,0.2,0.6,0.5l8.6,27.9c0.1,0.3,0,0.5-0.4,0.5h-1.3c-0.3,0-0.5-0.2-0.6-0.5l-2.6-8.2
			h-10.2l-2.5,8.2c-0.1,0.3-0.3,0.5-0.6,0.5h-1.2c-0.3,0-0.5-0.2-0.4-0.5l8.6-27.9c0.1-0.3,0.3-0.5,0.6-0.5
			C261.4,24.9,262.8,24.9,262.8,24.9z M263.1,31.9c-0.4-1.4-1-4.1-1.1-4.5c0,0.3-0.6,3-1,4.4l-3.6,11.5h9.2L263.1,31.9z"/>
		<path class="st0" d="M285.4,41.8v11.5c0,0.3-0.1,0.5-0.5,0.5h-1.3c-0.3,0-0.5-0.2-0.5-0.5V25.4c0-0.3,0.2-0.5,0.5-0.5h8.3
			c6.8,0,8.9,2.7,8.9,6v4.9c0,2.7-1.3,5-5.4,5.7l5.8,11.7c0.1,0.3-0.1,0.5-0.5,0.5h-1.3c-0.4,0-0.5-0.2-0.6-0.5l-5.6-11.5
			c-0.4,0-0.8,0-1.3,0C291.9,41.8,285.4,41.8,285.4,41.8z M285.4,26.9v13h6.5c5,0,6.6-1.8,6.6-4.4v-4.3c0-2.6-1.7-4.4-6.6-4.4
			L285.4,26.9L285.4,26.9z"/>
	</g>
	<g>
		<polygon class="st0" points="0,19.7 33.9,0 67.7,19.7 33.9,39.4 		"/>
		<polygon class="st1" points="34,59.1 34,78.8 0.1,59.1 0.1,39.4 		"/>
		<polygon class="st0" points="34,59.1 34,78.8 67.9,59.1 67.9,39.4 		"/>
	</g>
</g>
</svg>
