<svg version="1.1" xmlns="http://www.w3.org/2000/svg" viewBox="0 0 100 75">
<style type="text/css">
	.st0{fill:none;}
	.st1{fill:#171C30;}
	.st2{opacity:0.5;fill:#171C30;enable-background:new    ;}
</style>
<defs>
</defs>
<rect class="st0" width="100" height="75"/>
<g>
	<g>
		<path class="st1" d="M44.7,40.3c0,0.1,0,0.1-0.1,0.1h-0.2c-0.1,0-0.1,0-0.1-0.1v-4.7L44.1,36l-1.4,3.4c0,0.1-0.1,0.1-0.1,0.1h-0.2
			c-0.1,0-0.1,0-0.1-0.1L40.8,36c-0.1-0.1-0.1-0.3-0.1-0.4v4.7c0,0.1,0,0.1-0.1,0.1h-0.2c-0.1,0-0.1,0-0.1-0.1v-5.6
			c0-0.1,0-0.1,0.1-0.1h0.2c0.1,0,0.1,0,0.1,0.1l1.7,4c0.1,0.2,0.1,0.4,0.1,0.4s0.1-0.2,0.1-0.4l1.7-4c0,0,0-0.1,0.1-0.1h0.2
			c0.1,0,0.1,0,0.1,0.1L44.7,40.3L44.7,40.3z"/>
		<path class="st1" d="M47.2,35.7c0-0.7,0.4-1.2,1.8-1.2c1.4,0,1.8,0.5,1.8,1.2v3.5c0,0.7-0.4,1.2-1.8,1.2c-1.4,0-1.8-0.5-1.8-1.2
			V35.7z M50.3,35.8c0-0.5-0.3-0.9-1.3-0.9c-1,0-1.3,0.4-1.3,0.9v3.4c0,0.5,0.3,0.9,1.3,0.9c1,0,1.3-0.4,1.3-0.9V35.8z"/>
		<path class="st1" d="M53.3,40.4c-0.1,0-0.1,0-0.1-0.1v-5.6c0-0.1,0-0.1,0.1-0.1H55c1.4,0,1.8,0.5,1.8,1.2v3.4
			c0,0.7-0.4,1.2-1.8,1.2L53.3,40.4L53.3,40.4z M53.7,35v5H55c1,0,1.3-0.4,1.3-0.9v-3.2c0-0.5-0.3-0.9-1.3-0.9L53.7,35L53.7,35z"/>
		<path class="st1" d="M59.7,39.2c0,0.5,0.3,0.9,1.3,0.9s1.3-0.4,1.3-0.9v-4.5c0-0.1,0-0.1,0.1-0.1h0.3c0.1,0,0.1,0,0.1,0.1v4.5
			c0,0.7-0.4,1.2-1.8,1.2c-1.4,0-1.8-0.5-1.8-1.2v-4.5c0-0.1,0-0.1,0.1-0.1h0.3c0.1,0,0.1,0,0.1,0.1L59.7,39.2L59.7,39.2z"/>
		<path class="st1" d="M65.7,40h2.5c0.1,0,0.1,0,0.1,0.1v0.2c0,0.1,0,0.1-0.1,0.1h-2.9c-0.1,0-0.1,0-0.1-0.1v-5.6
			c0-0.1,0-0.1,0.1-0.1h0.3c0.1,0,0.1,0,0.1,0.1L65.7,40L65.7,40z"/>
		<path class="st1" d="M72.4,34.6c0.1,0,0.1,0,0.1,0.1l1.7,5.6c0,0.1,0,0.1-0.1,0.1h-0.3c-0.1,0-0.1,0-0.1-0.1l-0.5-1.6h-2l-0.5,1.6
			c0,0.1-0.1,0.1-0.1,0.1h-0.2c-0.1,0-0.1,0-0.1-0.1l1.7-5.6c0-0.1,0.1-0.1,0.1-0.1C72.2,34.6,72.4,34.6,72.4,34.6z M72.5,36
			c-0.1-0.3-0.2-0.8-0.2-0.9c0,0.1-0.1,0.6-0.2,0.9l-0.7,2.3h1.8L72.5,36z"/>
		<path class="st1" d="M77,38v2.3c0,0.1,0,0.1-0.1,0.1h-0.3c-0.1,0-0.1,0-0.1-0.1v-5.6c0-0.1,0-0.1,0.1-0.1h1.7
			c1.4,0,1.8,0.5,1.8,1.2v1c0,0.5-0.3,1-1.1,1.1l1.2,2.3c0,0.1,0,0.1-0.1,0.1h-0.3c-0.1,0-0.1,0-0.1-0.1L78.5,38c-0.1,0-0.2,0-0.3,0
			C78.3,38,77,38,77,38z M77,35v2.6h1.3c1,0,1.3-0.4,1.3-0.9v-0.9c0-0.5-0.3-0.9-1.3-0.9L77,35L77,35z"/>
	</g>
	<g>
		<polygon class="st1" points="19.9,33.6 26.6,29.6 33.4,33.6 26.6,37.5 		"/>
		<polygon class="st2" points="26.7,41.4 26.7,45.4 19.9,41.4 19.9,37.5 		"/>
		<polygon class="st1" points="26.7,41.4 26.7,45.4 33.4,41.4 33.4,37.5 		"/>
	</g>
</g>
</svg>
